<?xml version="1.0" encoding="utf-8"?>
<!-- Generator: Adobe Illustrator 24.0.1, SVG Export Plug-In . SVG Version: 6.00 Build 0)  -->
<svg version="1.1" id="Capa_1" xmlns="http://www.w3.org/2000/svg" xmlns:xlink="http://www.w3.org/1999/xlink" x="0px" y="0px"
	 viewBox="0 0 841.9 595.3" style="enable-background:new 0 0 841.9 595.3;" xml:space="preserve">
<style type="text/css">
	.st0{fill:#E9E5DC;stroke:#E9E5DC;stroke-miterlimit:10;}
	.st1{fill:#E9E5DC;}
</style>
<path class="st0" d="M127.5,263.1c1.6,0.2,3,0.3,4.2,0.3s2.6,0.1,4.3,0.1c1,0,2.5,0,4.4-0.1s4.2-0.1,6.9-0.2
	c2.1-0.1,4.3-0.1,6.4-0.2c2.1,0,4-0.1,5.7-0.1c3.3,0,6.2,0.2,8.8,0.4c2.6,0.3,4.9,0.8,7.1,1.4s4.1,1.5,5.9,2.6
	c1.8,1.1,3.5,2.4,5.1,3.9c6.9,6.4,10.3,15.1,10.3,26.1c0,6.7-1.2,12.8-3.7,18.4s-6,10.1-10.6,13.6c-1.9,1.5-3.9,2.7-5.9,3.8
	s-4.2,1.9-6.6,2.5c-2.4,0.7-5,1.1-7.8,1.4s-5.9,0.4-9.4,0.4c-1,0-2.3,0-4.2-0.1s-3.7-0.1-5.6-0.2c-1.7-0.1-3.2-0.1-4.4-0.2
	c-1.2,0-2.2-0.1-3-0.1c-1.4,0-2.7,0-3.8,0.1s-2.5,0.2-4.1,0.3c0.2-1.2,0.3-3.2,0.4-6s0.2-6,0.3-9.5s0.2-7.3,0.3-11.2
	c0.1-4,0.1-7.7,0.1-11.2c0-7.8-0.1-14.8-0.3-21.1S127.9,267.2,127.5,263.1L127.5,263.1z M138,332.8c1.9,0.4,3.6,0.6,5.2,0.7
	c1.5,0.1,3.3,0.2,5.4,0.2c3.6,0,6.8-0.2,9.6-0.4s5.3-0.8,7.5-1.4c2.2-0.7,4.2-1.5,6-2.6s3.4-2.4,4.9-3.9c6-6.2,9-15,9-26.5
	c0-10.8-2.8-19-8.3-24.6c-1.3-1.3-2.8-2.4-4.3-3.3s-3.3-1.6-5.3-2.2s-4.3-0.9-6.9-1.2s-5.7-0.3-9.1-0.3c-2.8,0-5.2,0.1-7.1,0.2
	c-2,0.1-4.2,0.3-6.6,0.6c-0.1,1-0.2,2.8-0.2,5.3c-0.1,2.5-0.1,5.2-0.2,8.3s-0.1,6.1-0.1,9.1s-0.1,5.7-0.1,7.9c0,3.4,0,6.8,0.1,10.3
	c0,3.5,0.1,6.8,0.2,9.9c0.1,3.1,0.2,5.9,0.2,8.4C137.9,329.7,137.9,331.6,138,332.8L138,332.8z"/>
<path class="st0" d="M235,285.3c8.1,0,14.4,2.4,18.9,7.3s6.8,11.6,6.8,20.3c0,3.9-0.7,7.5-1.9,10.7s-3.1,6-5.4,8.4
	c-2.3,2.3-5.1,4.1-8.4,5.4s-6.9,1.9-10.8,1.9s-7.6-0.7-10.9-1.9c-3.3-1.3-6.1-3.1-8.4-5.4s-4.1-5.2-5.3-8.5c-1.3-3.3-1.9-7-1.9-11.1
	s0.6-8,1.9-11.3c1.3-3.3,3.1-6.1,5.4-8.5c2.4-2.3,5.2-4.1,8.6-5.4C227,286,230.8,285.3,235,285.3L235,285.3z M234.2,288.8
	c-5.3,0-9.5,2.1-12.5,6.2s-4.5,9.9-4.5,17.3s1.5,13.2,4.5,17.3c3,4.2,7.1,6.3,12.3,6.3s9.4-2.1,12.4-6.2s4.5-9.8,4.5-16.9
	c0-7.8-1.4-13.8-4.3-17.8S239.7,288.8,234.2,288.8L234.2,288.8z"/>
<path class="st0" d="M272.9,338c0.2-1.2,0.3-3,0.4-5.4s0.2-5.3,0.3-8.6c0.1-3.3,0.1-7.1,0.2-11.2s0.1-8.6,0.1-13.2
	c0-5.3,0-10.3-0.1-15s-0.1-8.8-0.2-12.6c-0.1-3.7-0.2-6.9-0.3-9.6c-0.1-2.7-0.2-4.8-0.3-6.3c1,0.2,1.9,0.3,2.5,0.3
	c0.6,0.1,1.3,0.1,2,0.1c0.8,0,1.5,0,2.2-0.1s1.5-0.2,2.7-0.3c-0.2,2-0.3,4.2-0.3,6.6c-0.1,2.4-0.1,5.2-0.2,8.4s-0.1,6.8-0.1,11
	c0,4.1-0.1,8.9-0.1,14.3c3.9-7.5,10.1-11.2,18.6-11.2c3.3,0,6.3,0.6,9.1,1.8c2.7,1.2,5.1,2.9,7,5.2c2,2.2,3.5,4.9,4.5,8
	s1.6,6.5,1.6,10.3c0,4.1-0.6,7.9-1.9,11.4s-3,6.5-5.2,9.1s-4.8,4.6-7.8,6s-6.3,2.2-9.8,2.2c-3.3,0-6.2-0.6-8.6-1.7s-4.8-3.1-7.1-5.9
	c-1.1,0.7-2.4,1.8-3.9,3c-1.5,1.3-2.6,2.4-3.4,3.4L272.9,338L272.9,338z M297.4,289.4c-2.4,0-4.7,0.6-6.9,1.8c-2.2,1.2-4,2.9-5.3,5
	c-2.6,4.3-3.9,10.1-3.9,17.4c0,3.5,0.2,6.3,0.7,8.6c0.5,2.3,1.3,4.4,2.4,6.3c1.3,2.1,3,3.8,5.2,5.1c2.2,1.3,4.5,1.9,6.9,1.9
	s4.7-0.6,6.7-1.8s3.8-2.9,5.2-5c1.4-2.2,2.6-4.8,3.4-7.8s1.2-6.3,1.2-9.9c0-3.3-0.4-6.2-1.1-8.9s-1.8-5-3.2-6.9s-3-3.3-4.9-4.4
	C301.9,290,299.8,289.4,297.4,289.4L297.4,289.4z"/>
<path class="st0" d="M334.9,256.3c1,0.2,1.9,0.2,2.5,0.3c0.7,0,1.4,0.1,2.3,0.1s1.6,0,2.3-0.1s1.4-0.1,2.3-0.3
	c-0.1,1.4-0.2,3.7-0.2,6.8c-0.1,3.1-0.2,6.6-0.2,10.5c-0.1,3.8-0.1,7.8-0.2,11.8s-0.1,7.7-0.1,10.8c0,4.4,0,8.8,0.1,13.2
	c0,4.4,0.1,8.4,0.2,12.1s0.2,7,0.2,9.8c0.1,2.8,0.2,5,0.2,6.4c-1.3-0.2-2.2-0.3-2.8-0.3c-0.6-0.1-1.2-0.1-1.8-0.1s-1.2,0-1.8,0.1
	s-1.6,0.2-2.9,0.3c0.1-2.2,0.2-4.2,0.3-6c0.1-1.8,0.2-3.5,0.2-5.3s0.1-3.6,0.1-5.6s0.1-4.2,0.1-6.8c0-2.5,0.1-5.5,0.1-8.8v-11.7
	c0-4.9,0-9.2-0.1-13s-0.1-7.1-0.1-10.1s-0.1-5.6-0.2-7.9S335.1,258.3,334.9,256.3L334.9,256.3z"/>
<path class="st0" d="M402.5,327.3l-0.2,1c-0.3,1-0.5,1.7-0.5,2.2c-0.1,0.5-0.1,1.3-0.1,2.4c-1.7,1.3-3.3,2.3-4.8,3.1s-3,1.5-4.4,1.9
	s-3,0.8-4.5,1s-3.3,0.3-5.1,0.3c-4,0-7.6-0.6-10.8-1.9c-3.2-1.3-5.9-3-8.2-5.3c-2.3-2.3-4-5.1-5.2-8.4s-1.8-7-1.8-11
	c0-8.5,2.3-15.2,7-20.3c2.2-2.4,4.8-4.2,7.9-5.4c3-1.1,6.6-1.7,10.6-1.7c7.1,0,12.5,2,16.4,6s5.8,9.7,5.8,17v1.5
	c0,0.6,0,1.3-0.1,1.9c-1.8-0.2-4.1-0.2-6.9-0.3c-2.8,0-6.5-0.1-11.2-0.1c-3.5,0-6.7,0-9.7,0.1s-6.4,0.1-10.1,0.3v2.4
	c0,3.1,0.4,5.9,1.3,8.5s2.1,4.7,3.7,6.5s3.5,3.2,5.8,4.2s4.8,1.5,7.6,1.5c6.8,0,12.5-2.6,17-7.8L402.5,327.3L402.5,327.3z
	 M395.6,307.3c-0.2-2.5-0.3-4.5-0.6-6s-0.7-2.9-1.2-4.2c-2.1-5.5-6.1-8.3-11.8-8.3c-4.4,0-7.9,1.7-10.7,5s-4.4,7.9-4.8,13.7
	c1.7,0.1,3.9,0.1,6.5,0.2c2.7,0,6.1,0.1,10.4,0.1h4.5c1.1,0,2.1,0,2.9-0.1s1.6-0.1,2.3-0.1S394.6,307.4,395.6,307.3L395.6,307.3z"/>
<path class="st1" d="M479.8,326.1l-1.5,6.5c-6.4,4.4-14.7,6.6-24.8,6.6c-5.8,0-11.1-0.9-15.9-2.7c-4.8-1.8-8.8-4.4-12.2-7.7
	s-5.9-7.3-7.8-12.1c-1.8-4.7-2.7-10-2.7-15.7c0-6,1-11.5,2.9-16.3s4.7-9,8.4-12.4c3.6-3.4,8-6.1,13.1-7.9s10.9-2.8,17.2-2.8
	c9.2,0,16.9,1.5,23.4,4.5c-1,2.4-1.8,5.2-2.2,8.4l-0.8,0.3c-5.8-6.1-12.9-9.2-21.4-9.2c-4.4,0-8.6,0.9-12.4,2.7s-7.1,4.4-9.8,7.8
	c-4.9,6-7.4,14.2-7.4,24.5s2.6,18.9,7.9,24.9c5.5,6.3,12.7,9.5,21.6,9.5c4.4,0,8.6-0.8,12.5-2.3s7.7-3.9,11.5-7.1L479.8,326.1
	L479.8,326.1z"/>
<path class="st1" d="M491.6,256.3c1,0.2,1.9,0.2,2.6,0.3c0.7,0,1.4,0.1,2.3,0.1s1.6,0,2.3-0.1s1.4-0.1,2.3-0.3
	c-0.1,1.4-0.2,3.7-0.2,6.8s-0.2,6.6-0.2,10.5c-0.1,3.8-0.1,7.8-0.2,11.8s-0.1,7.7-0.1,10.8c0,4.4,0,8.8,0.1,13.2
	c0,4.4,0.1,8.4,0.2,12.1s0.2,7,0.2,9.8c0.1,2.8,0.2,5,0.2,6.4c-1.3-0.2-2.2-0.3-2.8-0.3c-0.6-0.1-1.2-0.1-1.8-0.1s-1.2,0-1.8,0.1
	s-1.6,0.2-2.9,0.3c0.1-2.2,0.2-4.2,0.3-6c0.1-1.8,0.2-3.5,0.2-5.3s0.1-3.6,0.1-5.6s0.1-4.2,0.1-6.8c0-2.5,0.1-5.5,0.1-8.8v-11.7
	c0-4.9,0-9.2-0.1-13s-0.1-7.1-0.1-10.1s-0.1-5.6-0.2-7.9S491.7,258.3,491.6,256.3L491.6,256.3z"/>
<path class="st1" d="M540.8,285.3c8.1,0,14.4,2.4,18.9,7.3s6.8,11.6,6.8,20.3c0,3.9-0.6,7.5-1.9,10.7c-1.3,3.3-3.1,6-5.4,8.4
	c-2.3,2.3-5.1,4.1-8.4,5.4c-3.3,1.3-6.9,1.9-10.8,1.9c-3.9,0-7.6-0.7-10.9-1.9c-3.3-1.3-6.1-3.1-8.4-5.4s-4.1-5.2-5.3-8.5
	c-1.3-3.3-1.9-7-1.9-11.1s0.6-8,1.9-11.3s3.1-6.1,5.4-8.5c2.4-2.3,5.2-4.1,8.6-5.4C532.7,286,536.5,285.3,540.8,285.3L540.8,285.3z
	 M540,288.8c-5.3,0-9.5,2.1-12.5,6.2s-4.5,9.9-4.5,17.3s1.5,13.2,4.5,17.3c3,4.2,7.1,6.3,12.3,6.3s9.4-2.1,12.4-6.2
	s4.5-9.8,4.5-16.9c0-7.8-1.4-13.8-4.3-17.8C549.5,291,545.5,288.8,540,288.8L540,288.8z"/>
<path class="st1" d="M599.4,327.3c0.7-1.8,1.6-3.9,2.7-6.3c1-2.4,2.1-5,3.2-7.7s2.1-5.4,3.2-8.3c1.1-2.8,2.1-5.4,3-7.9
	s1.7-4.6,2.4-6.6s1.2-3.5,1.5-4.5c1.1,0.2,1.9,0.3,2.3,0.3c0.4,0,0.8,0.1,1.2,0.1c0.7,0,1.8-0.2,3.3-0.4c-2,4.1-4.1,8.8-6.4,13.8
	s-4.5,10.1-6.6,15.1s-4,9.5-5.6,13.6s-2.7,7.2-3.3,9.2c-0.9-0.2-1.5-0.3-1.9-0.3s-0.7-0.1-1.1-0.1c-0.5,0-1.5,0.2-2.9,0.4
	c-0.4-1.3-0.9-2.6-1.5-4.1s-1.2-3.2-2-5.2s-1.7-4.3-2.8-7s-2.3-5.8-3.8-9.3c-2.1-5-3.8-9-5-12s-2.2-5.4-3-7.1
	c-0.8-1.8-1.4-3.1-1.9-4.1s-1-1.9-1.5-2.9c1.1,0.2,2,0.3,2.7,0.3c0.7,0.1,1.4,0.1,2.2,0.1c0.7,0,1.5,0,2.3-0.1s1.8-0.2,3-0.3
	c1.2,3.5,2.3,6.7,3.4,9.7s2.3,6.1,3.5,9.2s2.6,6.5,4.1,10.1C595.7,318.8,597.4,322.8,599.4,327.3L599.4,327.3z"/>
<path class="st1" d="M673.9,327.3l-0.2,1c-0.3,1-0.5,1.7-0.6,2.2s-0.1,1.3-0.1,2.4c-1.7,1.3-3.3,2.3-4.8,3.1s-2.9,1.5-4.4,1.9
	c-1.5,0.5-3,0.8-4.5,1s-3.3,0.3-5.1,0.3c-4,0-7.6-0.6-10.8-1.9s-5.9-3-8.2-5.3s-4-5.1-5.2-8.4s-1.8-7-1.8-11c0-8.5,2.3-15.2,7-20.3
	c2.2-2.4,4.8-4.2,7.9-5.4c3-1.1,6.6-1.7,10.6-1.7c7.1,0,12.6,2,16.4,6s5.8,9.7,5.8,17v1.5c0,0.6,0,1.3-0.1,1.9
	c-1.8-0.2-4.1-0.2-6.9-0.3c-2.8,0-6.5-0.1-11.2-0.1c-3.5,0-6.7,0-9.7,0.1s-6.4,0.1-10.1,0.3v2.4c0,3.1,0.4,5.9,1.3,8.5
	c0.9,2.6,2.1,4.7,3.7,6.5c1.6,1.8,3.5,3.2,5.8,4.2s4.8,1.5,7.6,1.5c6.8,0,12.5-2.6,17.1-7.8L673.9,327.3L673.9,327.3z M667.1,307.3
	c-0.2-2.5-0.3-4.5-0.6-6s-0.7-2.9-1.2-4.2c-2.1-5.5-6.1-8.3-11.8-8.3c-4.4,0-7.9,1.7-10.7,5c-2.8,3.4-4.4,7.9-4.8,13.7
	c1.7,0.1,3.9,0.1,6.5,0.2s6.1,0.1,10.4,0.1h4.5c1.1,0,2.1,0,2.9-0.1s1.6-0.1,2.3-0.1C665.3,307.5,666.1,307.4,667.1,307.3
	L667.1,307.3z"/>
<path class="st1" d="M713.1,295.1c-1.7-1.2-3.5-1.8-5.3-1.8c-2.4,0-4.5,0.8-6.4,2.3s-3.2,3.5-4,5.9c-0.2,0.6-0.4,1.3-0.5,2.2
	s-0.2,2-0.3,3.4s-0.1,3.1-0.2,5.2c-0.1,2.1-0.1,4.5-0.1,7.4c0,1.5,0,3.1,0.1,4.8c0,1.7,0.1,3.4,0.2,5c0.1,1.7,0.2,3.2,0.2,4.7
	c0.1,1.5,0.2,2.7,0.3,3.7c-1.2-0.2-2.1-0.3-2.7-0.3c-0.6-0.1-1.3-0.1-1.9-0.1c-0.6,0-1.2,0-1.9,0.1s-1.6,0.2-2.9,0.3
	c0.2-2.1,0.4-5.6,0.6-10.3s0.2-10.3,0.2-16.7c0-2,0-3.8-0.1-5.3s-0.1-3.1-0.1-4.8s-0.1-3.7-0.2-5.9c-0.1-2.2-0.2-5.2-0.4-8.7
	c1.3,0.2,2.3,0.3,2.9,0.3c0.6,0,1.2,0.1,1.8,0.1s1.2,0,1.7-0.1c0.6-0.1,1.4-0.2,2.5-0.3c-0.1,1.9-0.1,3.4-0.2,4.5
	c-0.1,1.1-0.1,2-0.1,2.7v4.3c1.8-3.8,4.1-6.8,6.7-9c2.6-2.1,5.3-3.2,8.1-3.2c0.7,0,1.2,0.1,1.7,0.2s1,0.3,1.6,0.6
	c-0.6,2.4-0.9,4.5-0.9,6.3c0,0.2,0,0.5,0.1,0.9s0.1,0.8,0.2,1.3L713.1,295.1L713.1,295.1z"/>
</svg>
