<?xml version="1.0" encoding="utf-8"?>
<!-- Generator: Adobe Illustrator 24.0.1, SVG Export Plug-In . SVG Version: 6.00 Build 0)  -->
<svg version="1.1" id="Capa_1" xmlns="http://www.w3.org/2000/svg" xmlns:xlink="http://www.w3.org/1999/xlink" x="0px" y="0px"
	 viewBox="0 0 841.9 595.3" style="enable-background:new 0 0 841.9 595.3;" xml:space="preserve">
<style type="text/css">
	.st0{fill:#2C3433;stroke:#2C3433;stroke-miterlimit:10;}
	.st1{fill:#2C3433;}
</style>
<path class="st0" d="M127.6,385.4c1.6,0.2,3,0.3,4.2,0.3s2.6,0.1,4.3,0.1c1,0,2.5,0,4.4-0.1s4.2-0.1,6.9-0.2
	c2.1-0.1,4.3-0.1,6.4-0.2c2.1,0,4-0.1,5.7-0.1c3.3,0,6.2,0.2,8.8,0.4c2.6,0.3,4.9,0.8,7.1,1.4s4.1,1.5,5.9,2.6
	c1.8,1.1,3.5,2.4,5.1,3.9c6.9,6.4,10.3,15.1,10.3,26.1c0,6.7-1.2,12.8-3.7,18.4s-6,10.1-10.6,13.6c-1.9,1.5-3.9,2.7-5.9,3.8
	s-4.2,1.9-6.6,2.5c-2.4,0.7-5,1.1-7.8,1.4c-2.8,0.3-5.9,0.4-9.4,0.4c-1,0-2.3,0-4.2-0.1s-3.7-0.1-5.6-0.2c-1.7-0.1-3.2-0.1-4.4-0.2
	c-1.2,0-2.2-0.1-3-0.1c-1.4,0-2.7,0-3.8,0.1c-1.1,0.1-2.5,0.2-4.1,0.3c0.2-1.2,0.3-3.2,0.4-6c0.1-2.8,0.2-6,0.3-9.5
	c0.1-3.5,0.2-7.3,0.3-11.2c0.1-4,0.1-7.7,0.1-11.2c0-7.8-0.1-14.8-0.3-21.1S128,389.5,127.6,385.4L127.6,385.4z M138.1,455.2
	c1.9,0.4,3.6,0.6,5.2,0.7c1.5,0.1,3.3,0.2,5.4,0.2c3.6,0,6.8-0.2,9.6-0.4s5.3-0.8,7.5-1.4c2.2-0.7,4.2-1.5,6-2.6
	c1.8-1.1,3.4-2.4,4.9-3.9c6-6.2,9-15,9-26.5c0-10.8-2.8-19-8.3-24.6c-1.3-1.3-2.8-2.4-4.3-3.3c-1.5-0.9-3.3-1.6-5.3-2.2
	s-4.3-0.9-6.9-1.2s-5.7-0.3-9.1-0.3c-2.8,0-5.2,0.1-7.1,0.2c-2,0.1-4.2,0.3-6.6,0.6c-0.1,1-0.2,2.8-0.2,5.3
	c-0.1,2.5-0.1,5.2-0.2,8.3s-0.1,6.1-0.1,9.1s-0.1,5.7-0.1,7.9c0,3.4,0,6.8,0.1,10.3c0,3.5,0.1,6.8,0.2,9.9c0.1,3.1,0.2,5.9,0.2,8.4
	C138,452.1,138,454,138.1,455.2L138.1,455.2z"/>
<path class="st0" d="M235.1,407.7c8.1,0,14.4,2.4,18.9,7.3s6.8,11.6,6.8,20.3c0,3.9-0.7,7.5-1.9,10.7s-3.1,6-5.4,8.4
	c-2.3,2.3-5.1,4.1-8.4,5.4s-6.9,1.9-10.8,1.9s-7.6-0.7-10.9-1.9c-3.3-1.3-6.1-3.1-8.4-5.4s-4.1-5.2-5.3-8.5c-1.3-3.3-1.9-7-1.9-11.1
	s0.6-8,1.9-11.3c1.3-3.3,3.1-6.1,5.4-8.5c2.4-2.3,5.2-4.1,8.6-5.4C227.1,408.3,230.9,407.7,235.1,407.7L235.1,407.7z M234.3,411.1
	c-5.3,0-9.5,2.1-12.5,6.2c-3,4.1-4.5,9.9-4.5,17.3s1.5,13.2,4.5,17.3c3,4.2,7.1,6.3,12.3,6.3s9.4-2.1,12.4-6.2s4.5-9.8,4.5-16.9
	c0-7.8-1.4-13.8-4.3-17.8S239.8,411.1,234.3,411.1L234.3,411.1z"/>
<path class="st0" d="M273,460.4c0.2-1.2,0.3-3,0.4-5.4s0.2-5.3,0.3-8.6c0.1-3.3,0.1-7.1,0.2-11.2s0.1-8.6,0.1-13.2
	c0-5.3,0-10.3-0.1-15s-0.1-8.8-0.2-12.6c-0.1-3.7-0.2-6.9-0.3-9.6c-0.1-2.7-0.2-4.8-0.3-6.3c1,0.2,1.9,0.3,2.5,0.3
	c0.6,0.1,1.3,0.1,2,0.1c0.8,0,1.5,0,2.2-0.1c0.7-0.1,1.5-0.2,2.7-0.3c-0.2,2-0.3,4.2-0.3,6.6c-0.1,2.4-0.1,5.2-0.2,8.4
	s-0.1,6.8-0.1,11c0,4.1-0.1,8.9-0.1,14.3c3.9-7.5,10.1-11.2,18.6-11.2c3.3,0,6.3,0.6,9.1,1.8c2.7,1.2,5.1,2.9,7,5.2
	c2,2.2,3.5,4.9,4.5,8s1.6,6.5,1.6,10.3c0,4.1-0.6,7.9-1.9,11.4c-1.3,3.5-3,6.5-5.2,9.1c-2.2,2.6-4.8,4.6-7.8,6
	c-3,1.4-6.3,2.2-9.8,2.2c-3.3,0-6.2-0.6-8.6-1.7c-2.4-1.1-4.8-3.1-7.1-5.9c-1.1,0.7-2.4,1.8-3.9,3c-1.5,1.3-2.6,2.4-3.4,3.4
	L273,460.4L273,460.4z M297.5,411.8c-2.4,0-4.7,0.6-6.9,1.8c-2.2,1.2-4,2.9-5.3,5c-2.6,4.3-3.9,10.1-3.9,17.4c0,3.5,0.2,6.3,0.7,8.6
	c0.5,2.3,1.3,4.4,2.4,6.3c1.3,2.1,3,3.8,5.2,5.1c2.2,1.3,4.5,1.9,6.9,1.9s4.7-0.6,6.7-1.8s3.8-2.9,5.2-5c1.4-2.2,2.6-4.8,3.4-7.8
	s1.2-6.3,1.2-9.9c0-3.3-0.4-6.2-1.1-8.9s-1.8-5-3.2-6.9s-3-3.3-4.9-4.4C302,412.3,299.9,411.8,297.5,411.8L297.5,411.8z"/>
<path class="st0" d="M335,378.7c1,0.2,1.9,0.2,2.5,0.3c0.7,0,1.4,0.1,2.3,0.1s1.6,0,2.3-0.1s1.4-0.1,2.3-0.3
	c-0.1,1.4-0.2,3.7-0.2,6.8c-0.1,3.1-0.2,6.6-0.2,10.5c-0.1,3.8-0.1,7.8-0.2,11.8s-0.1,7.7-0.1,10.8c0,4.4,0,8.8,0.1,13.2
	c0,4.4,0.1,8.4,0.2,12.1c0.1,3.7,0.2,7,0.2,9.8c0.1,2.8,0.2,5,0.2,6.4c-1.3-0.2-2.2-0.3-2.8-0.3c-0.6-0.1-1.2-0.1-1.8-0.1
	s-1.2,0-1.8,0.1s-1.6,0.2-2.9,0.3c0.1-2.2,0.2-4.2,0.3-6c0.1-1.8,0.2-3.5,0.2-5.3c0-1.8,0.1-3.6,0.1-5.6s0.1-4.2,0.1-6.8
	c0-2.5,0.1-5.5,0.1-8.8V416c0-4.9,0-9.2-0.1-13s-0.1-7.1-0.1-10.1c0-3-0.1-5.6-0.2-7.9S335.2,380.7,335,378.7L335,378.7z"/>
<path class="st0" d="M402.6,449.6l-0.2,1c-0.3,1-0.5,1.7-0.5,2.2c-0.1,0.5-0.1,1.3-0.1,2.4c-1.7,1.3-3.3,2.3-4.8,3.1s-3,1.5-4.4,1.9
	s-3,0.8-4.5,1s-3.3,0.3-5.1,0.3c-4,0-7.6-0.6-10.8-1.9c-3.2-1.3-5.9-3-8.2-5.3c-2.3-2.3-4-5.1-5.2-8.4c-1.2-3.3-1.8-7-1.8-11
	c0-8.5,2.3-15.2,7-20.3c2.2-2.4,4.8-4.2,7.9-5.4c3-1.1,6.6-1.7,10.6-1.7c7.1,0,12.5,2,16.4,6s5.8,9.7,5.8,17v1.5
	c0,0.6,0,1.3-0.1,1.9c-1.8-0.2-4.1-0.2-6.9-0.3c-2.8,0-6.5-0.1-11.2-0.1c-3.5,0-6.7,0-9.7,0.1s-6.4,0.1-10.1,0.3v2.4
	c0,3.1,0.4,5.9,1.3,8.5s2.1,4.7,3.7,6.5c1.6,1.8,3.5,3.2,5.8,4.2c2.3,1,4.8,1.5,7.6,1.5c6.8,0,12.5-2.6,17-7.8L402.6,449.6
	L402.6,449.6z M395.7,429.6c-0.2-2.5-0.3-4.5-0.6-6s-0.7-2.9-1.2-4.2c-2.1-5.5-6.1-8.3-11.8-8.3c-4.4,0-7.9,1.7-10.7,5
	s-4.4,7.9-4.8,13.7c1.7,0.1,3.9,0.1,6.5,0.2c2.7,0,6.1,0.1,10.4,0.1h4.5c1.1,0,2.1,0,2.9-0.1s1.6-0.1,2.3-0.1
	S394.7,429.8,395.7,429.6L395.7,429.6z"/>
<path class="st1" d="M479.9,448.4l-1.5,6.5c-6.4,4.4-14.7,6.6-24.8,6.6c-5.8,0-11.1-0.9-15.9-2.7c-4.8-1.8-8.8-4.4-12.2-7.7
	s-5.9-7.3-7.8-12.1c-1.8-4.7-2.7-10-2.7-15.7c0-6,1-11.5,2.9-16.3s4.7-9,8.4-12.4c3.6-3.4,8-6.1,13.1-7.9c5.1-1.8,10.9-2.8,17.2-2.8
	c9.2,0,16.9,1.5,23.4,4.5c-1,2.4-1.8,5.2-2.2,8.4l-0.8,0.3c-5.8-6.1-12.9-9.2-21.4-9.2c-4.4,0-8.6,0.9-12.4,2.7s-7.1,4.4-9.8,7.8
	c-4.9,6-7.4,14.2-7.4,24.5s2.6,18.9,7.9,24.9c5.5,6.3,12.7,9.5,21.6,9.5c4.4,0,8.6-0.8,12.5-2.3c3.9-1.5,7.7-3.9,11.5-7.1
	L479.9,448.4L479.9,448.4z"/>
<path class="st1" d="M491.7,378.7c1,0.2,1.9,0.2,2.6,0.3c0.7,0,1.4,0.1,2.3,0.1s1.6,0,2.3-0.1s1.4-0.1,2.3-0.3
	c-0.1,1.4-0.2,3.7-0.2,6.8s-0.2,6.6-0.2,10.5c-0.1,3.8-0.1,7.8-0.2,11.8s-0.1,7.7-0.1,10.8c0,4.4,0,8.8,0.1,13.2
	c0,4.4,0.1,8.4,0.2,12.1c0.1,3.7,0.2,7,0.2,9.8c0.1,2.8,0.2,5,0.2,6.4c-1.3-0.2-2.2-0.3-2.8-0.3c-0.6-0.1-1.2-0.1-1.8-0.1
	s-1.2,0-1.8,0.1s-1.6,0.2-2.9,0.3c0.1-2.2,0.2-4.2,0.3-6c0.1-1.8,0.2-3.5,0.2-5.3c0-1.8,0.1-3.6,0.1-5.6s0.1-4.2,0.1-6.8
	c0-2.5,0.1-5.5,0.1-8.8V416c0-4.9,0-9.2-0.1-13s-0.1-7.1-0.1-10.1c0-3-0.1-5.6-0.2-7.9S491.8,380.7,491.7,378.7L491.7,378.7z"/>
<path class="st1" d="M540.9,407.7c8.1,0,14.4,2.4,18.9,7.3s6.8,11.6,6.8,20.3c0,3.9-0.6,7.5-1.9,10.7c-1.3,3.3-3.1,6-5.4,8.4
	c-2.3,2.3-5.1,4.1-8.4,5.4c-3.3,1.3-6.9,1.9-10.8,1.9s-7.6-0.7-10.9-1.9c-3.3-1.3-6.1-3.1-8.4-5.4s-4.1-5.2-5.3-8.5
	c-1.3-3.3-1.9-7-1.9-11.1s0.6-8,1.9-11.3s3.1-6.1,5.4-8.5c2.4-2.3,5.2-4.1,8.6-5.4C532.8,408.3,536.6,407.7,540.9,407.7L540.9,407.7
	z M540.1,411.1c-5.3,0-9.5,2.1-12.5,6.2s-4.5,9.9-4.5,17.3s1.5,13.2,4.5,17.3c3,4.2,7.1,6.3,12.3,6.3s9.4-2.1,12.4-6.2
	c3-4.1,4.5-9.8,4.5-16.9c0-7.8-1.4-13.8-4.3-17.8S545.6,411.1,540.1,411.1L540.1,411.1z"/>
<path class="st1" d="M599.5,449.6c0.7-1.8,1.6-3.9,2.7-6.3c1-2.4,2.1-5,3.2-7.7c1.1-2.7,2.1-5.4,3.2-8.3c1.1-2.8,2.1-5.4,3-7.9
	s1.7-4.6,2.4-6.6c0.7-2,1.2-3.5,1.5-4.5c1.1,0.2,1.9,0.3,2.3,0.3s0.8,0.1,1.2,0.1c0.7,0,1.8-0.2,3.3-0.4c-2,4.1-4.1,8.8-6.4,13.8
	s-4.5,10.1-6.6,15.1c-2.1,5-4,9.5-5.6,13.6c-1.6,4.1-2.7,7.2-3.3,9.2c-0.9-0.2-1.5-0.3-1.9-0.3s-0.7-0.1-1.1-0.1
	c-0.5,0-1.5,0.2-2.9,0.4c-0.4-1.3-0.9-2.6-1.5-4.1s-1.2-3.2-2-5.2s-1.7-4.3-2.8-7c-1.1-2.7-2.3-5.8-3.8-9.3c-2.1-5-3.8-9-5-12
	c-1.2-3-2.2-5.4-3-7.1c-0.8-1.8-1.4-3.1-1.9-4.1c-0.5-1-1-1.9-1.5-2.9c1.1,0.2,2,0.3,2.7,0.3c0.7,0.1,1.4,0.1,2.2,0.1
	c0.7,0,1.5,0,2.3-0.1s1.8-0.2,3-0.3c1.2,3.5,2.3,6.7,3.4,9.7c1.1,3,2.3,6.1,3.5,9.2c1.2,3.1,2.6,6.5,4.1,10.1
	C595.8,441.1,597.5,445.1,599.5,449.6L599.5,449.6z"/>
<path class="st1" d="M674,449.6l-0.2,1c-0.3,1-0.5,1.7-0.6,2.2c-0.1,0.5-0.1,1.3-0.1,2.4c-1.7,1.3-3.3,2.3-4.8,3.1s-2.9,1.5-4.4,1.9
	c-1.5,0.5-3,0.8-4.5,1s-3.3,0.3-5.1,0.3c-4,0-7.6-0.6-10.8-1.9c-3.2-1.3-5.9-3-8.2-5.3c-2.3-2.3-4-5.1-5.2-8.4
	c-1.2-3.3-1.8-7-1.8-11c0-8.5,2.3-15.2,7-20.3c2.2-2.4,4.8-4.2,7.9-5.4c3-1.1,6.6-1.7,10.6-1.7c7.1,0,12.6,2,16.4,6
	c3.8,4,5.8,9.7,5.8,17v1.5c0,0.6,0,1.3-0.1,1.9c-1.8-0.2-4.1-0.2-6.9-0.3c-2.8,0-6.5-0.1-11.2-0.1c-3.5,0-6.7,0-9.7,0.1
	s-6.4,0.1-10.1,0.3v2.4c0,3.1,0.4,5.9,1.3,8.5s2.1,4.7,3.7,6.5c1.6,1.8,3.5,3.2,5.8,4.2c2.3,1,4.8,1.5,7.6,1.5
	c6.8,0,12.5-2.6,17.1-7.8L674,449.6L674,449.6z M667.2,429.6c-0.2-2.5-0.3-4.5-0.6-6s-0.7-2.9-1.2-4.2c-2.1-5.5-6.1-8.3-11.8-8.3
	c-4.4,0-7.9,1.7-10.7,5c-2.8,3.4-4.4,7.9-4.8,13.7c1.7,0.1,3.9,0.1,6.5,0.2s6.1,0.1,10.4,0.1h4.5c1.1,0,2.1,0,2.9-0.1
	s1.6-0.1,2.3-0.1C665.4,429.9,666.2,429.8,667.2,429.6L667.2,429.6z"/>
<path class="st1" d="M713.2,417.4c-1.7-1.2-3.5-1.8-5.3-1.8c-2.4,0-4.5,0.8-6.4,2.3c-1.9,1.5-3.2,3.5-4,5.9
	c-0.2,0.6-0.4,1.3-0.5,2.2s-0.2,2-0.3,3.4c-0.1,1.4-0.1,3.1-0.2,5.2s-0.1,4.5-0.1,7.4c0,1.5,0,3.1,0.1,4.8c0,1.7,0.1,3.4,0.2,5
	c0.1,1.7,0.2,3.2,0.2,4.7c0.1,1.5,0.2,2.7,0.3,3.7c-1.2-0.2-2.1-0.3-2.7-0.3c-0.6-0.1-1.3-0.1-1.9-0.1c-0.6,0-1.2,0-1.9,0.1
	s-1.6,0.2-2.9,0.3c0.2-2.1,0.4-5.6,0.6-10.3s0.2-10.3,0.2-16.7c0-2,0-3.8-0.1-5.3s-0.1-3.1-0.1-4.8s-0.1-3.7-0.2-5.9
	s-0.2-5.2-0.4-8.7c1.3,0.2,2.3,0.3,2.9,0.3s1.2,0.1,1.8,0.1s1.2,0,1.7-0.1c0.6-0.1,1.4-0.2,2.5-0.3c-0.1,1.9-0.1,3.4-0.2,4.5
	s-0.1,2-0.1,2.7v4.3c1.8-3.8,4.1-6.8,6.7-9c2.6-2.1,5.3-3.2,8.1-3.2c0.7,0,1.2,0.1,1.7,0.2c0.5,0.1,1,0.3,1.6,0.6
	c-0.6,2.4-0.9,4.5-0.9,6.3c0,0.2,0,0.5,0.1,0.9s0.1,0.8,0.2,1.3L713.2,417.4L713.2,417.4z"/>
<path class="st1" d="M434.5,249.8c9,4,21.5,6.5,27,6.8c17.6,1,51.3,1,52.7-20.8c0.1-0.9,0.2-2.9,0.2-2.9s-0.1-2-0.2-2.9
	c-1.2-9.3-7.4-14.1-17.2-17.2c-6.7-2.1-15.2-3.1-22.2-3.3c-8.8-0.2-28.8,2-39.4,6c-3.4,1.3-9.4,5.5-10.7,7c-4.4-9-7.1-20-7.1-33.5
	c0-27.2,12.1-54.2,44.3-54.2h22.9c0,0,23.5-0.9,28-0.9v-1.5H460c-27.4,0-43.4,10.6-51.7,25.4c-8.3-14.8-24.2-25.4-51.7-25.4h-52.8
	v1.5c4.4,0,11.6,0.8,11.6,10.6v54.6c5.3,0,11,0.5,16.3-0.1c0.9-2.2-2.1-5.5-3.2-7.3c-6.3-9.9-11.5-24.1-0.9-33.2
	c3.6-3.1,8.4-4.9,13.2-5.2c5-0.3,8.8,1.6,12.8,4.3c0,0-0.1-3.6,0.1-5.2c1-7.3,7.9-11.9,14.6-13.3c7.6-1.6,16,0.9,20.9,7.1
	c1.8,2.4,3.2,5,4.6,7.7c1.6,3.1,2.6,6.7,3.5,10.1c2,7.4,2.8,15.1,2.6,22.7c-0.2,6.5-1.1,12.9-2.5,19.2c-0.3,1.3-5.3,16.6-5.4,16.6
	c-2.5-2-7.3-5.3-11.1-6.8c-10.4-4.3-30.2-6.4-39-6.2c-7,0.1-15.5,1.2-22.2,3.3c-9.8,3.1-16,7.9-17.2,17.2c-0.1,0.9-0.2,2.9-0.2,2.9
	s0.1,2,0.1,2.9c1.4,21.9,35.1,21.8,52.7,20.8c5.6-0.3,18-2.9,27-6.8c1-0.5,10.2-5.8,9.8-6.5c3.4,6.8,5.6,14.6,6.8,22.6l-1.4-6
	c1.2,5.4,2.1,10.9,2.4,16.4c0.1,2,0.1,4,0.1,6c-0.1,6.6-0.9,13.2-2.6,19.6c-0.9,3.4-1.9,7-3.5,10.1c-1.4,2.6-2.7,5.3-4.6,7.7
	c-4.9,6.3-13.2,8.7-20.9,7.1c-6.7-1.4-13.6-6-14.6-13.3c-0.2-1.6-0.1-5.2-0.1-5.2c-4,2.7-7.8,4.6-12.8,4.3c-4.7-0.3-9.6-2-13.2-5.2
	c-10.6-9.1-5.4-23.3,0.9-33.2c1.1-1.7,4.1-5.1,3.2-7.3c-5.3-0.5-11-0.1-16.3-0.1v54.6c0,9.9-7.2,10.6-11.6,10.6v1.5h0h52.8h0
	c27.4,0,43.4-10.6,51.7-25.4c8.3,14.7,24.2,25.4,51.7,25.4h52.8v-1.5c-4.4,0-28-0.9-28-0.9H462c-32.2,0-44.3-27-44.3-54.2
	c0-13.5,2.7-24.5,7.1-33.5C424.7,244.3,433.5,249.4,434.5,249.8z M432.6,231.4c0.4-0.9,1.1-2.2,1.8-3c2.3-2.8,6.6-4,10-5.1
	c13.3-4.2,27.8-5.5,41.7-3.6c8.6,1.2,23.1,2.5,23.5,13.3c0.2,4.8-5.9,8.5-9.8,10c-6.2,2.4-13.4,3.5-20.1,3.7
	c-6.5,0.2-13.1-0.2-19.5-1.3c-2.2-0.4-4.5-0.9-6.6-1.4c-7-1.7-14.4-3.7-19.8-8.4C431.8,233.7,431.6,233.6,432.6,231.4z M382.7,235.6
	c-5.4,4.7-12.8,6.6-19.8,8.4c-2.2,0.5-4.4,1-6.6,1.4c-6.4,1.1-13,1.5-19.5,1.3c-6.7-0.3-13.8-1.3-20.1-3.7c-3.9-1.5-9.9-5.3-9.8-10
	c0.4-10.8,14.9-12.1,23.5-13.3c13.9-1.9,28.4-0.6,41.7,3.6c3.4,1.1,7.8,2.3,10,5.1c0.7,0.8,1.4,2.1,1.8,3
	C385.1,233.6,384.9,233.7,382.7,235.6z M408.3,242.9c-1.8-3.6-3.9-7-6.3-10c2.3-3,4.4-6.4,6.3-10c1.8,3.6,3.9,7,6.3,10
	C412.2,236,410.1,239.3,408.3,242.9z"/>
</svg>
