<?xml version="1.0" encoding="utf-8"?>
<!-- Generator: Adobe Illustrator 24.0.1, SVG Export Plug-In . SVG Version: 6.00 Build 0)  -->
<svg version="1.1" id="Capa_1" xmlns="http://www.w3.org/2000/svg" xmlns:xlink="http://www.w3.org/1999/xlink" x="0px" y="0px"
	 viewBox="0 0 841.9 595.3" style="enable-background:new 0 0 841.9 595.3;" xml:space="preserve">
<style type="text/css">
	.st0{fill:#2B3332;stroke:#2B3332;stroke-miterlimit:10;}
	.st1{fill:#2B3332;}
	.st2{fill:#E9E5DC;}
	.st3{fill:#758257;}
	.st4{fill:#758257;stroke:#758257;stroke-miterlimit:10;}
</style>
<path class="st0" d="M127.5,751.1c1.6,0.2,3,0.3,4.2,0.3s2.6,0.1,4.3,0.1c1,0,2.5,0,4.4-0.1c1.9-0.1,4.2-0.1,6.9-0.2
	c2.1-0.1,4.3-0.1,6.4-0.2c2.1,0,4-0.1,5.7-0.1c3.3,0,6.2,0.2,8.8,0.4c2.6,0.3,4.9,0.8,7.1,1.4c2.2,0.6,4.1,1.5,5.9,2.6
	c1.8,1.1,3.5,2.4,5.1,3.9c6.9,6.4,10.3,15.1,10.3,26.1c0,6.7-1.2,12.8-3.7,18.4c-2.5,5.6-6,10.1-10.6,13.6c-1.9,1.5-3.9,2.7-5.9,3.8
	s-4.2,1.9-6.6,2.5c-2.4,0.7-5,1.1-7.8,1.4s-5.9,0.4-9.4,0.4c-1,0-2.3,0-4.2-0.1c-1.9-0.1-3.7-0.1-5.6-0.2c-1.7-0.1-3.2-0.1-4.4-0.2
	c-1.2,0-2.2-0.1-3-0.1c-1.4,0-2.7,0-3.8,0.1c-1.1,0.1-2.5,0.2-4.1,0.3c0.2-1.2,0.3-3.2,0.4-6c0.1-2.8,0.2-6,0.3-9.5
	s0.2-7.3,0.3-11.2c0.1-4,0.1-7.7,0.1-11.2c0-7.8-0.1-14.8-0.3-21.1C128.1,759.9,127.9,755.2,127.5,751.1L127.5,751.1z M138,820.8
	c1.9,0.4,3.6,0.6,5.2,0.7c1.5,0.1,3.3,0.2,5.4,0.2c3.6,0,6.8-0.2,9.6-0.4c2.8-0.2,5.3-0.8,7.5-1.4c2.2-0.7,4.2-1.5,6-2.6
	c1.8-1.1,3.4-2.4,4.9-3.9c6-6.2,9-15,9-26.5c0-10.8-2.8-19-8.3-24.6c-1.3-1.3-2.8-2.4-4.3-3.3c-1.5-0.9-3.3-1.6-5.3-2.2
	c-2-0.6-4.3-0.9-6.9-1.2c-2.6-0.3-5.7-0.3-9.1-0.3c-2.8,0-5.2,0.1-7.1,0.2c-2,0.1-4.2,0.3-6.6,0.6c-0.1,1-0.2,2.8-0.2,5.3
	c-0.1,2.5-0.1,5.2-0.2,8.3s-0.1,6.1-0.1,9.1s-0.1,5.7-0.1,7.9c0,3.4,0,6.8,0.1,10.3c0,3.5,0.1,6.8,0.2,9.9c0.1,3.1,0.2,5.9,0.2,8.4
	C137.9,817.7,137.9,819.6,138,820.8L138,820.8z"/>
<path class="st0" d="M235,773.3c8.1,0,14.4,2.4,18.9,7.3c4.5,4.9,6.8,11.6,6.8,20.3c0,3.9-0.7,7.5-1.9,10.7s-3.1,6-5.4,8.4
	c-2.3,2.3-5.1,4.1-8.4,5.4s-6.9,1.9-10.8,1.9s-7.6-0.7-10.9-1.9c-3.3-1.3-6.1-3.1-8.4-5.4s-4.1-5.2-5.3-8.5c-1.3-3.3-1.9-7-1.9-11.1
	c0-4.1,0.6-8,1.9-11.3c1.3-3.3,3.1-6.1,5.4-8.5c2.4-2.3,5.2-4.1,8.6-5.4C227,774,230.8,773.3,235,773.3L235,773.3z M234.2,776.8
	c-5.3,0-9.5,2.1-12.5,6.2c-3,4.1-4.5,9.9-4.5,17.3c0,7.4,1.5,13.2,4.5,17.3c3,4.2,7.1,6.3,12.3,6.3s9.4-2.1,12.4-6.2
	c3-4.1,4.5-9.8,4.5-16.9c0-7.8-1.4-13.8-4.3-17.8S239.7,776.8,234.2,776.8L234.2,776.8z"/>
<path class="st0" d="M272.9,826c0.2-1.2,0.3-3,0.4-5.4c0.1-2.4,0.2-5.3,0.3-8.6c0.1-3.3,0.1-7.1,0.2-11.2c0.1-4.1,0.1-8.6,0.1-13.2
	c0-5.3,0-10.3-0.1-15s-0.1-8.8-0.2-12.6c-0.1-3.7-0.2-6.9-0.3-9.6c-0.1-2.7-0.2-4.8-0.3-6.3c1,0.2,1.9,0.3,2.5,0.3
	c0.6,0.1,1.3,0.1,2,0.1c0.8,0,1.5,0,2.2-0.1c0.7-0.1,1.5-0.2,2.7-0.3c-0.2,2-0.3,4.2-0.3,6.6c-0.1,2.4-0.1,5.2-0.2,8.4
	c-0.1,3.2-0.1,6.8-0.1,11c0,4.1-0.1,8.9-0.1,14.3c3.9-7.5,10.1-11.2,18.6-11.2c3.3,0,6.3,0.6,9.1,1.8c2.7,1.2,5.1,2.9,7,5.2
	c2,2.2,3.5,4.9,4.5,8c1,3.1,1.6,6.5,1.6,10.3c0,4.1-0.6,7.9-1.9,11.4s-3,6.5-5.2,9.1c-2.2,2.6-4.8,4.6-7.8,6c-3,1.4-6.3,2.2-9.8,2.2
	c-3.3,0-6.2-0.6-8.6-1.7c-2.4-1.1-4.8-3.1-7.1-5.9c-1.1,0.7-2.4,1.8-3.9,3c-1.5,1.3-2.6,2.4-3.4,3.4L272.9,826L272.9,826z
	 M297.4,777.4c-2.4,0-4.7,0.6-6.9,1.8c-2.2,1.2-4,2.9-5.3,5c-2.6,4.3-3.9,10.1-3.9,17.4c0,3.5,0.2,6.3,0.7,8.6s1.3,4.4,2.4,6.3
	c1.3,2.1,3,3.8,5.2,5.1c2.2,1.3,4.5,1.9,6.9,1.9s4.7-0.6,6.7-1.8c2-1.2,3.8-2.9,5.2-5c1.4-2.2,2.6-4.8,3.4-7.8s1.2-6.3,1.2-9.9
	c0-3.3-0.4-6.2-1.1-8.9c-0.7-2.7-1.8-5-3.2-6.9c-1.4-1.9-3-3.3-4.9-4.4C301.9,778,299.8,777.4,297.4,777.4L297.4,777.4z"/>
<path class="st0" d="M334.9,744.3c1,0.2,1.9,0.2,2.5,0.3c0.7,0,1.4,0.1,2.3,0.1s1.6,0,2.3-0.1c0.7-0.1,1.4-0.1,2.3-0.3
	c-0.1,1.4-0.2,3.7-0.2,6.8c-0.1,3.1-0.2,6.6-0.2,10.5c-0.1,3.8-0.1,7.8-0.2,11.8s-0.1,7.7-0.1,10.8c0,4.4,0,8.8,0.1,13.2
	c0,4.4,0.1,8.4,0.2,12.1s0.2,7,0.2,9.8c0.1,2.8,0.2,5,0.2,6.4c-1.3-0.2-2.2-0.3-2.8-0.3c-0.6-0.1-1.2-0.1-1.8-0.1s-1.2,0-1.8,0.1
	c-0.6,0.1-1.6,0.2-2.9,0.3c0.1-2.2,0.2-4.2,0.3-6c0.1-1.8,0.2-3.5,0.2-5.3s0.1-3.6,0.1-5.6s0.1-4.2,0.1-6.8c0-2.5,0.1-5.5,0.1-8.8
	v-11.7c0-4.9,0-9.2-0.1-13s-0.1-7.1-0.1-10.1s-0.1-5.6-0.2-7.9S335.1,746.3,334.9,744.3L334.9,744.3z"/>
<path class="st0" d="M402.5,815.3l-0.2,1c-0.3,1-0.5,1.7-0.5,2.2c-0.1,0.5-0.1,1.3-0.1,2.4c-1.7,1.3-3.3,2.3-4.8,3.1
	c-1.5,0.8-3,1.5-4.4,1.9c-1.4,0.4-3,0.8-4.5,1s-3.3,0.3-5.1,0.3c-4,0-7.6-0.6-10.8-1.9c-3.2-1.3-5.9-3-8.2-5.3
	c-2.3-2.3-4-5.1-5.2-8.4s-1.8-7-1.8-11c0-8.5,2.3-15.2,7-20.3c2.2-2.4,4.8-4.2,7.9-5.4c3-1.1,6.6-1.7,10.6-1.7c7.1,0,12.5,2,16.4,6
	s5.8,9.7,5.8,17v1.5c0,0.6,0,1.3-0.1,1.9c-1.8-0.2-4.1-0.2-6.9-0.3c-2.8,0-6.5-0.1-11.2-0.1c-3.5,0-6.7,0-9.7,0.1
	c-3,0.1-6.4,0.1-10.1,0.3v2.4c0,3.1,0.4,5.9,1.3,8.5c0.9,2.6,2.1,4.7,3.7,6.5s3.5,3.2,5.8,4.2s4.8,1.5,7.6,1.5
	c6.8,0,12.5-2.6,17-7.8L402.5,815.3L402.5,815.3z M395.6,795.3c-0.2-2.5-0.3-4.5-0.6-6s-0.7-2.9-1.2-4.2c-2.1-5.5-6.1-8.3-11.8-8.3
	c-4.4,0-7.9,1.7-10.7,5s-4.4,7.9-4.8,13.7c1.7,0.1,3.9,0.1,6.5,0.2c2.7,0,6.1,0.1,10.4,0.1h4.5c1.1,0,2.1,0,2.9-0.1
	c0.8-0.1,1.6-0.1,2.3-0.1S394.6,795.4,395.6,795.3L395.6,795.3z"/>
<path class="st1" d="M479.8,814.1l-1.5,6.5c-6.4,4.4-14.7,6.6-24.8,6.6c-5.8,0-11.1-0.9-15.9-2.7s-8.8-4.4-12.2-7.7
	c-3.4-3.3-5.9-7.3-7.8-12.1c-1.8-4.7-2.7-10-2.7-15.7c0-6,1-11.5,2.9-16.3s4.7-9,8.4-12.4c3.6-3.4,8-6.1,13.1-7.9s10.9-2.8,17.2-2.8
	c9.2,0,16.9,1.5,23.4,4.5c-1,2.4-1.8,5.2-2.2,8.4l-0.8,0.3c-5.8-6.1-12.9-9.2-21.4-9.2c-4.4,0-8.6,0.9-12.4,2.7
	c-3.8,1.8-7.1,4.4-9.8,7.8c-4.9,6-7.4,14.2-7.4,24.5s2.6,18.9,7.9,24.9c5.5,6.3,12.7,9.5,21.6,9.5c4.4,0,8.6-0.8,12.5-2.3
	s7.7-3.9,11.5-7.1L479.8,814.1L479.8,814.1z"/>
<path class="st1" d="M491.6,744.3c1,0.2,1.9,0.2,2.6,0.3c0.7,0,1.4,0.1,2.3,0.1s1.6,0,2.3-0.1c0.7-0.1,1.4-0.1,2.3-0.3
	c-0.1,1.4-0.2,3.7-0.2,6.8s-0.2,6.6-0.2,10.5c-0.1,3.8-0.1,7.8-0.2,11.8s-0.1,7.7-0.1,10.8c0,4.4,0,8.8,0.1,13.2
	c0,4.4,0.1,8.4,0.2,12.1s0.2,7,0.2,9.8c0.1,2.8,0.2,5,0.2,6.4c-1.3-0.2-2.2-0.3-2.8-0.3c-0.6-0.1-1.2-0.1-1.8-0.1s-1.2,0-1.8,0.1
	c-0.6,0.1-1.6,0.2-2.9,0.3c0.1-2.2,0.2-4.2,0.3-6c0.1-1.8,0.2-3.5,0.2-5.3s0.1-3.6,0.1-5.6s0.1-4.2,0.1-6.8c0-2.5,0.1-5.5,0.1-8.8
	v-11.7c0-4.9,0-9.2-0.1-13s-0.1-7.1-0.1-10.1s-0.1-5.6-0.2-7.9S491.7,746.3,491.6,744.3L491.6,744.3z"/>
<path class="st1" d="M540.8,773.3c8.1,0,14.4,2.4,18.9,7.3c4.5,4.9,6.8,11.6,6.8,20.3c0,3.9-0.6,7.5-1.9,10.7
	c-1.3,3.3-3.1,6-5.4,8.4c-2.3,2.3-5.1,4.1-8.4,5.4c-3.3,1.3-6.9,1.9-10.8,1.9c-3.9,0-7.6-0.7-10.9-1.9c-3.3-1.3-6.1-3.1-8.4-5.4
	s-4.1-5.2-5.3-8.5c-1.3-3.3-1.9-7-1.9-11.1c0-4.1,0.6-8,1.9-11.3s3.1-6.1,5.4-8.5c2.4-2.3,5.2-4.1,8.6-5.4
	C532.7,774,536.5,773.3,540.8,773.3L540.8,773.3z M540,776.8c-5.3,0-9.5,2.1-12.5,6.2c-3,4.1-4.5,9.9-4.5,17.3
	c0,7.4,1.5,13.2,4.5,17.3c3,4.2,7.1,6.3,12.3,6.3c5.2,0,9.4-2.1,12.4-6.2c3-4.1,4.5-9.8,4.5-16.9c0-7.8-1.4-13.8-4.3-17.8
	C549.5,779,545.5,776.8,540,776.8L540,776.8z"/>
<path class="st1" d="M599.4,815.3c0.7-1.8,1.6-3.9,2.7-6.3c1-2.4,2.1-5,3.2-7.7s2.1-5.4,3.2-8.3c1.1-2.8,2.1-5.4,3-7.9
	s1.7-4.6,2.4-6.6c0.7-2,1.2-3.5,1.5-4.5c1.1,0.2,1.9,0.3,2.3,0.3c0.4,0,0.8,0.1,1.2,0.1c0.7,0,1.8-0.2,3.3-0.4
	c-2,4.1-4.1,8.8-6.4,13.8s-4.5,10.1-6.6,15.1s-4,9.5-5.6,13.6c-1.6,4.1-2.7,7.2-3.3,9.2c-0.9-0.2-1.5-0.3-1.9-0.3s-0.7-0.1-1.1-0.1
	c-0.5,0-1.5,0.2-2.9,0.4c-0.4-1.3-0.9-2.6-1.5-4.1s-1.2-3.2-2-5.2c-0.8-2-1.7-4.3-2.8-7s-2.3-5.8-3.8-9.3c-2.1-5-3.8-9-5-12
	c-1.2-3-2.2-5.4-3-7.1c-0.8-1.8-1.4-3.1-1.9-4.1s-1-1.9-1.5-2.9c1.1,0.2,2,0.3,2.7,0.3c0.7,0.1,1.4,0.1,2.2,0.1c0.7,0,1.5,0,2.3-0.1
	c0.8-0.1,1.8-0.2,3-0.3c1.2,3.5,2.3,6.7,3.4,9.7s2.3,6.1,3.5,9.2c1.2,3.1,2.6,6.5,4.1,10.1C595.7,806.8,597.4,810.8,599.4,815.3
	L599.4,815.3z"/>
<path class="st1" d="M673.9,815.3l-0.2,1c-0.3,1-0.5,1.7-0.6,2.2s-0.1,1.3-0.1,2.4c-1.7,1.3-3.3,2.3-4.8,3.1
	c-1.5,0.8-2.9,1.5-4.4,1.9c-1.5,0.5-3,0.8-4.5,1s-3.3,0.3-5.1,0.3c-4,0-7.6-0.6-10.8-1.9c-3.2-1.3-5.9-3-8.2-5.3
	c-2.3-2.3-4-5.1-5.2-8.4c-1.2-3.3-1.8-7-1.8-11c0-8.5,2.3-15.2,7-20.3c2.2-2.4,4.8-4.2,7.9-5.4c3-1.1,6.6-1.7,10.6-1.7
	c7.1,0,12.6,2,16.4,6s5.8,9.7,5.8,17v1.5c0,0.6,0,1.3-0.1,1.9c-1.8-0.2-4.1-0.2-6.9-0.3c-2.8,0-6.5-0.1-11.2-0.1
	c-3.5,0-6.7,0-9.7,0.1c-3,0.1-6.4,0.1-10.1,0.3v2.4c0,3.1,0.4,5.9,1.3,8.5c0.9,2.6,2.1,4.7,3.7,6.5c1.6,1.8,3.5,3.2,5.8,4.2
	c2.3,1,4.8,1.5,7.6,1.5c6.8,0,12.5-2.6,17.1-7.8L673.9,815.3L673.9,815.3z M667.1,795.3c-0.2-2.5-0.3-4.5-0.6-6
	c-0.3-1.5-0.7-2.9-1.2-4.2c-2.1-5.5-6.1-8.3-11.8-8.3c-4.4,0-7.9,1.7-10.7,5c-2.8,3.4-4.4,7.9-4.8,13.7c1.7,0.1,3.9,0.1,6.5,0.2
	c2.6,0.1,6.1,0.1,10.4,0.1h4.5c1.1,0,2.1,0,2.9-0.1c0.8-0.1,1.6-0.1,2.3-0.1C665.3,795.5,666.1,795.4,667.1,795.3L667.1,795.3z"/>
<path class="st1" d="M713.1,783.1c-1.7-1.2-3.5-1.8-5.3-1.8c-2.4,0-4.5,0.8-6.4,2.3s-3.2,3.5-4,5.9c-0.2,0.6-0.4,1.3-0.5,2.2
	s-0.2,2-0.3,3.4c-0.1,1.4-0.1,3.1-0.2,5.2c-0.1,2.1-0.1,4.5-0.1,7.4c0,1.5,0,3.1,0.1,4.8c0,1.7,0.1,3.4,0.2,5
	c0.1,1.7,0.2,3.2,0.2,4.7c0.1,1.5,0.2,2.7,0.3,3.7c-1.2-0.2-2.1-0.3-2.7-0.3c-0.6-0.1-1.3-0.1-1.9-0.1c-0.6,0-1.2,0-1.9,0.1
	c-0.7,0.1-1.6,0.2-2.9,0.3c0.2-2.1,0.4-5.6,0.6-10.3c0.2-4.7,0.2-10.3,0.2-16.7c0-2,0-3.8-0.1-5.3s-0.1-3.1-0.1-4.8
	c0-1.7-0.1-3.7-0.2-5.9c-0.1-2.2-0.2-5.2-0.4-8.7c1.3,0.2,2.3,0.3,2.9,0.3c0.6,0,1.2,0.1,1.8,0.1s1.2,0,1.7-0.1
	c0.6-0.1,1.4-0.2,2.5-0.3c-0.1,1.9-0.1,3.4-0.2,4.5c-0.1,1.1-0.1,2-0.1,2.7v4.3c1.8-3.8,4.1-6.8,6.7-9c2.6-2.1,5.3-3.2,8.1-3.2
	c0.7,0,1.2,0.1,1.7,0.2c0.5,0.1,1,0.3,1.6,0.6c-0.6,2.4-0.9,4.5-0.9,6.3c0,0.2,0,0.5,0.1,0.9c0.1,0.4,0.1,0.8,0.2,1.3L713.1,783.1
	L713.1,783.1z"/>
<path class="st2" d="M447.1,314.5c9,4,21.5,6.5,27,6.8c17.6,1,51.3,1,52.7-20.8c0.1-0.9,0.2-2.9,0.2-2.9s-0.1-2-0.2-2.9
	c-1.2-9.3-7.4-14.1-17.2-17.2c-6.7-2.1-15.2-3.1-22.2-3.3c-8.8-0.2-28.8,2-39.4,6c-3.4,1.3-9.4,5.5-10.7,7c-4.4-9-7.1-20-7.1-33.5
	c0-27.2,12.1-54.2,44.3-54.2h22.9c0,0,23.5-0.9,28-0.9v-1.5h-52.8c-27.4,0-43.4,10.6-51.7,25.4c-8.3-14.8-24.2-25.4-51.7-25.4h-52.8
	v1.5c4.4,0,11.6,0.8,11.6,10.6v54.6c5.3,0,11,0.5,16.3-0.1c0.9-2.2-2.1-5.5-3.2-7.3c-6.3-9.9-11.5-24-0.9-33.2
	c3.6-3.1,8.4-4.9,13.2-5.2c5-0.3,8.8,1.6,12.8,4.3c0,0-0.1-3.6,0.1-5.2c1-7.3,7.9-11.9,14.6-13.3c7.6-1.6,16,0.8,20.9,7.1
	c1.8,2.3,3.2,5,4.6,7.7c1.6,3.1,2.6,6.7,3.5,10.1c2,7.3,2.8,15,2.6,22.7c-0.2,6.5-1.1,12.9-2.5,19.2c-0.3,1.3-5.3,16.7-5.4,16.6
	c-2.5-2-7.3-5.3-11.1-6.8c-10.4-4.3-30.2-6.4-39-6.2c-7,0.2-15.5,1.2-22.2,3.3c-9.8,3.1-16,7.9-17.2,17.2c-0.1,0.9-0.2,2.9-0.2,2.9
	s0.1,2,0.1,2.9c1.4,21.9,35.1,21.8,52.7,20.8c5.6-0.3,18-2.9,27-6.8c1-0.5,10.2-5.8,9.8-6.5c3.4,6.8,5.6,14.6,6.8,22.6l-1.4-6
	c1.2,5.4,2.1,10.9,2.4,16.4c0.1,2,0.2,4,0.1,6c-0.1,6.6-0.9,13.2-2.6,19.6c-0.9,3.4-1.9,7-3.5,10.1c-1.4,2.6-2.7,5.3-4.6,7.7
	c-4.9,6.3-13.2,8.7-20.9,7.1c-6.7-1.4-13.6-6-14.6-13.3c-0.2-1.6-0.1-5.2-0.1-5.2c-4,2.7-7.8,4.6-12.8,4.3c-4.7-0.3-9.5-2-13.2-5.2
	c-10.6-9.2-5.4-23.3,0.9-33.2c1.1-1.7,4.2-5.1,3.2-7.3c-5.3-0.5-11-0.1-16.3-0.1v54.6c0,9.9-7.2,10.6-11.6,10.6v1.5l0,0h52.8l0,0
	c27.4,0,43.4-10.6,51.7-25.4c8.3,14.7,24.2,25.4,51.7,25.4h52.8v-1.5c-4.4,0-28-0.9-28-0.9h-22.9c-32.2,0-44.3-27-44.3-54.2
	c0-13.5,2.7-24.5,7.1-33.5C437.2,309,446.1,314.1,447.1,314.5z M445.2,296.1c0.4-0.9,1.1-2.2,1.8-3c2.3-2.8,6.6-4,10-5.1
	c13.3-4.2,27.8-5.5,41.7-3.6c8.6,1.2,23.2,2.5,23.5,13.3c0.2,4.8-5.9,8.5-9.8,10c-6.2,2.4-13.3,3.5-20.1,3.7
	c-6.5,0.2-13.1-0.2-19.5-1.3c-2.2-0.4-4.5-0.9-6.6-1.4c-7-1.7-14.4-3.7-19.8-8.4C444.3,298.4,444.1,298.3,445.2,296.1z M395.3,300.3
	c-5.4,4.7-12.8,6.6-19.8,8.4c-2.2,0.5-4.4,1-6.6,1.4c-6.4,1.1-13,1.5-19.5,1.3c-6.7-0.3-13.8-1.3-20.1-3.7c-3.9-1.5-9.9-5.3-9.8-10
	c0.4-10.8,14.9-12.1,23.5-13.3c13.9-1.9,28.4-0.6,41.7,3.6c3.4,1.1,7.8,2.3,10,5.1c0.7,0.8,1.4,2.1,1.8,3
	C397.7,298.3,397.4,298.4,395.3,300.3z M420.9,307.6c-1.8-3.6-3.9-7-6.3-10c2.3-3,4.4-6.4,6.3-10c1.8,3.6,3.9,7,6.3,10
	C424.8,300.7,422.7,304,420.9,307.6z"/>
<path class="st3" d="M-708.4,261.5c9,4,21.5,6.5,27,6.8c17.6,1,51.3,1,52.7-20.8c0.1-0.9,0.2-2.9,0.2-2.9s-0.1-2-0.2-2.9
	c-1.2-9.3-7.4-14.1-17.2-17.2c-6.7-2.1-15.2-3.1-22.2-3.3c-8.8-0.2-28.8,2-39.4,6c-3.4,1.3-9.4,5.5-10.7,7c-4.4-9-7.1-20-7.1-33.5
	c0-27.2,12.1-54.2,44.3-54.2h22.9c0,0,23.5-0.9,28-0.9v-1.5h-52.8c-27.4,0-43.4,10.6-51.7,25.4c-8.3-14.8-24.2-25.4-51.7-25.4H-839
	v1.5c4.4,0,11.6,0.8,11.6,10.6v54.6c5.3,0,11,0.5,16.3-0.1c0.9-2.2-2.1-5.5-3.2-7.3c-6.3-9.9-11.5-24.1-0.9-33.2
	c3.6-3.1,8.4-4.9,13.2-5.2c5-0.3,8.8,1.6,12.8,4.3c0,0-0.1-3.6,0.1-5.2c1-7.3,7.9-11.9,14.6-13.3c7.6-1.6,16,0.9,20.9,7.1
	c1.8,2.4,3.2,5,4.6,7.7c1.6,3.1,2.6,6.7,3.5,10.1c2,7.4,2.8,15.1,2.6,22.7c-0.2,6.5-1.1,12.9-2.5,19.2c-0.3,1.3-5.3,16.6-5.4,16.6
	c-2.5-2-7.3-5.3-11.1-6.8c-10.4-4.3-30.2-6.4-39-6.2c-7,0.1-15.5,1.2-22.2,3.3c-9.8,3.1-16,7.9-17.2,17.2c-0.1,0.9-0.2,2.9-0.2,2.9
	s0.1,2,0.1,2.9c1.4,21.9,35.1,21.8,52.7,20.8c5.6-0.3,18-2.9,27-6.8c1-0.5,10.2-5.8,9.8-6.5c3.4,6.8,5.6,14.6,6.8,22.6l-1.4-6
	c1.2,5.4,2.1,10.9,2.4,16.4c0.1,2,0.2,4,0.1,6c-0.1,6.6-0.9,13.2-2.6,19.6c-0.9,3.4-1.9,7-3.5,10.1c-1.4,2.6-2.7,5.3-4.6,7.7
	c-4.9,6.3-13.2,8.7-20.9,7.1c-6.7-1.4-13.6-6-14.6-13.3c-0.2-1.6-0.1-5.2-0.1-5.2c-4,2.7-7.8,4.6-12.8,4.3c-4.7-0.3-9.5-2-13.2-5.2
	c-10.6-9.1-5.4-23.3,0.9-33.2c1.1-1.7,4.2-5.1,3.2-7.3c-5.3-0.5-11-0.1-16.3-0.1V333c0,9.9-7.2,10.6-11.6,10.6v1.5l0,0h52.8l0,0
	c27.4,0,43.4-10.6,51.7-25.4c8.3,14.7,24.2,25.4,51.7,25.4h52.8v-1.5c-4.4,0-28-0.9-28-0.9H-681c-32.2,0-44.3-27-44.3-54.2
	c0-13.5,2.7-24.5,7.1-33.5C-718.2,255.9-709.4,261.1-708.4,261.5z M-710.2,243c0.4-0.9,1.1-2.2,1.8-3c2.3-2.8,6.6-4,10-5.1
	c13.3-4.2,27.8-5.5,41.7-3.6c8.6,1.2,23.2,2.5,23.5,13.3c0.2,4.8-5.9,8.5-9.8,10c-6.2,2.4-13.3,3.4-20.1,3.7
	c-6.5,0.2-13.1-0.2-19.5-1.3c-2.2-0.4-4.5-0.9-6.6-1.4c-7-1.7-14.4-3.7-19.8-8.4C-711.1,245.4-711.3,245.3-710.2,243z M-760.2,247.3
	c-5.4,4.7-12.8,6.6-19.8,8.4c-2.2,0.5-4.4,1-6.6,1.4c-6.4,1.1-13,1.5-19.5,1.3c-6.7-0.3-13.8-1.3-20.1-3.7c-3.9-1.5-9.9-5.3-9.8-10
	c0.4-10.8,14.9-12.1,23.5-13.3c13.9-1.9,28.4-0.6,41.7,3.6c3.4,1.1,7.8,2.3,10,5.1c0.7,0.8,1.4,2.1,1.8,3
	C-757.8,245.3-758,245.4-760.2,247.3z M-734.6,254.6c-1.8-3.6-3.9-7-6.3-10c2.3-3,4.4-6.4,6.3-10c1.8,3.6,3.9,7,6.3,10
	C-730.7,247.6-732.7,251-734.6,254.6z"/>
<path class="st4" d="M-1011.5,392c1.6,0.2,3,0.3,4.2,0.3s2.6,0.1,4.3,0.1c1,0,2.5,0,4.4-0.1s4.2-0.1,6.9-0.2
	c2.1-0.1,4.3-0.1,6.4-0.2c2.1,0,4-0.1,5.7-0.1c3.3,0,6.2,0.2,8.8,0.4c2.6,0.3,4.9,0.8,7.1,1.4s4.1,1.5,5.9,2.6
	c1.8,1.1,3.5,2.4,5.1,3.9c6.9,6.4,10.3,15.1,10.3,26.1c0,6.7-1.2,12.8-3.7,18.4s-6,10.1-10.6,13.6c-1.9,1.5-3.9,2.7-5.9,3.8
	s-4.2,1.9-6.6,2.5c-2.4,0.7-5,1.1-7.8,1.4s-5.9,0.4-9.4,0.4c-1,0-2.3,0-4.2-0.1s-3.7-0.1-5.6-0.2c-1.7-0.1-3.2-0.1-4.4-0.2
	c-1.2,0-2.2-0.1-3-0.1c-1.4,0-2.7,0-3.8,0.1s-2.5,0.2-4.1,0.3c0.2-1.2,0.3-3.2,0.4-6c0.1-2.8,0.2-6,0.3-9.5s0.2-7.3,0.3-11.2
	c0.1-4,0.1-7.7,0.1-11.2c0-7.8-0.1-14.8-0.3-21.1S-1011.1,396.1-1011.5,392L-1011.5,392z M-1000.9,461.7c1.9,0.4,3.6,0.6,5.2,0.7
	c1.5,0.1,3.3,0.2,5.4,0.2c3.6,0,6.8-0.2,9.6-0.4s5.3-0.8,7.5-1.4c2.2-0.7,4.2-1.5,6-2.6s3.4-2.4,4.9-3.9c6-6.2,9-15,9-26.5
	c0-10.8-2.8-19-8.3-24.6c-1.3-1.3-2.8-2.4-4.3-3.3s-3.3-1.6-5.3-2.2s-4.3-0.9-6.9-1.2s-5.7-0.3-9.1-0.3c-2.8,0-5.2,0.1-7.1,0.2
	c-2,0.1-4.2,0.3-6.6,0.6c-0.1,1-0.2,2.8-0.2,5.3c-0.1,2.5-0.1,5.2-0.2,8.3s-0.1,6.1-0.1,9.1s-0.1,5.7-0.1,7.9c0,3.4,0,6.8,0.1,10.3
	c0,3.5,0.1,6.8,0.2,9.9c0.1,3.1,0.2,5.9,0.2,8.4C-1001.1,458.6-1001,460.5-1000.9,461.7L-1000.9,461.7z"/>
<path class="st4" d="M-904,414.2c8.1,0,14.4,2.4,18.9,7.3s6.8,11.6,6.8,20.3c0,3.9-0.7,7.5-1.9,10.7s-3.1,6-5.4,8.4
	c-2.3,2.3-5.1,4.1-8.4,5.4s-6.9,1.9-10.8,1.9s-7.6-0.7-10.9-1.9c-3.3-1.3-6.1-3.1-8.4-5.4s-4.1-5.2-5.3-8.5c-1.3-3.3-1.9-7-1.9-11.1
	s0.6-8,1.9-11.3c1.3-3.3,3.1-6.1,5.4-8.5c2.4-2.3,5.2-4.1,8.6-5.4C-912,414.8-908.2,414.2-904,414.2L-904,414.2z M-904.7,417.6
	c-5.3,0-9.5,2.1-12.5,6.2s-4.5,9.9-4.5,17.3s1.5,13.2,4.5,17.3c3,4.2,7.1,6.3,12.3,6.3s9.4-2.1,12.4-6.2s4.5-9.8,4.5-16.9
	c0-7.8-1.4-13.8-4.3-17.8S-899.2,417.7-904.7,417.6L-904.7,417.6z"/>
<path class="st4" d="M-866,466.9c0.2-1.2,0.3-3,0.4-5.4s0.2-5.3,0.3-8.6c0.1-3.3,0.1-7.1,0.2-11.2s0.1-8.6,0.1-13.2
	c0-5.3,0-10.3-0.1-15s-0.1-8.8-0.2-12.6c-0.1-3.7-0.2-6.9-0.3-9.6s-0.2-4.8-0.3-6.3c1,0.2,1.9,0.3,2.5,0.3c0.6,0.1,1.3,0.1,2,0.1
	c0.8,0,1.5,0,2.2-0.1s1.5-0.2,2.7-0.3c-0.2,2-0.3,4.2-0.3,6.6c-0.1,2.4-0.1,5.2-0.2,8.4s-0.1,6.8-0.1,11c0,4.1-0.1,8.9-0.1,14.3
	c3.9-7.5,10.1-11.2,18.6-11.2c3.3,0,6.3,0.6,9.1,1.8c2.7,1.2,5.1,2.9,7,5.2c2,2.2,3.5,4.9,4.5,8s1.6,6.5,1.6,10.3
	c0,4.1-0.6,7.9-1.9,11.4c-1.3,3.5-3,6.5-5.2,9.1s-4.8,4.6-7.8,6s-6.3,2.2-9.8,2.2c-3.3,0-6.2-0.6-8.6-1.7c-2.4-1.1-4.8-3.1-7.1-5.9
	c-1.1,0.7-2.4,1.8-3.9,3c-1.5,1.3-2.6,2.4-3.4,3.4L-866,466.9L-866,466.9z M-841.5,418.3c-2.4,0-4.7,0.6-6.9,1.8
	c-2.2,1.2-4,2.9-5.3,5c-2.6,4.3-3.9,10.1-3.9,17.4c0,3.5,0.2,6.3,0.7,8.6c0.5,2.3,1.3,4.4,2.4,6.3c1.3,2.1,3,3.8,5.2,5.1
	c2.2,1.3,4.5,1.9,6.9,1.9s4.7-0.6,6.7-1.8s3.8-2.9,5.2-5c1.4-2.2,2.6-4.8,3.4-7.8s1.2-6.3,1.2-9.9c0-3.3-0.4-6.2-1.1-8.9
	s-1.8-5-3.2-6.9s-3-3.3-4.9-4.4C-837,418.8-839.1,418.3-841.5,418.3L-841.5,418.3z"/>
<path class="st4" d="M-804,385.2c1,0.2,1.9,0.2,2.5,0.3c0.7,0,1.4,0.1,2.3,0.1s1.6,0,2.3-0.1s1.4-0.1,2.3-0.3
	c-0.1,1.4-0.2,3.7-0.2,6.8c-0.1,3.1-0.2,6.6-0.2,10.5c-0.1,3.8-0.1,7.8-0.2,11.8s-0.1,7.7-0.1,10.8c0,4.4,0,8.8,0.1,13.2
	c0,4.4,0.1,8.4,0.2,12.1c0.1,3.7,0.2,7,0.2,9.8c0.1,2.8,0.2,5,0.2,6.4c-1.3-0.2-2.2-0.3-2.8-0.3c-0.6-0.1-1.2-0.1-1.8-0.1
	s-1.2,0-1.8,0.1s-1.6,0.2-2.9,0.3c0.1-2.2,0.2-4.2,0.3-6s0.2-3.5,0.2-5.3s0.1-3.6,0.1-5.6s0.1-4.2,0.1-6.8c0-2.5,0.1-5.5,0.1-8.8
	v-11.7c0-4.9,0-9.2-0.1-13s-0.1-7.1-0.1-10.1s-0.1-5.6-0.2-7.9S-803.8,387.2-804,385.2L-804,385.2z"/>
<path class="st4" d="M-736.5,456.2l-0.2,1c-0.3,1-0.5,1.7-0.5,2.2c-0.1,0.5-0.1,1.3-0.1,2.4c-1.7,1.3-3.3,2.3-4.8,3.1
	s-3,1.5-4.4,1.9s-3,0.8-4.5,1s-3.3,0.3-5.1,0.3c-4,0-7.6-0.6-10.8-1.9s-5.9-3-8.2-5.3s-4-5.1-5.2-8.4s-1.8-7-1.8-11
	c0-8.5,2.3-15.2,7-20.3c2.2-2.4,4.8-4.2,7.9-5.4c3-1.1,6.6-1.7,10.6-1.7c7.1,0,12.5,2,16.4,6s5.8,9.7,5.8,17v1.5
	c0,0.6,0,1.3-0.1,1.9c-1.8-0.2-4.1-0.2-6.9-0.3c-2.8,0-6.5-0.1-11.2-0.1c-3.5,0-6.7,0-9.7,0.1s-6.4,0.1-10.1,0.3v2.4
	c0,3.1,0.4,5.9,1.3,8.5s2.1,4.7,3.7,6.5c1.6,1.8,3.5,3.2,5.8,4.2s4.8,1.5,7.6,1.5c6.8,0,12.5-2.6,17-7.8L-736.5,456.2L-736.5,456.2z
	 M-743.3,436.1c-0.2-2.5-0.3-4.5-0.6-6s-0.7-2.9-1.2-4.2c-2.1-5.5-6.1-8.3-11.8-8.3c-4.4,0-7.9,1.7-10.7,5s-4.4,7.9-4.8,13.7
	c1.7,0.1,3.9,0.1,6.5,0.2c2.7,0,6.1,0.1,10.4,0.1h4.5c1.1,0,2.1,0,2.9-0.1s1.6-0.1,2.3-0.1S-744.3,436.3-743.3,436.1L-743.3,436.1z"
	/>
<path class="st3" d="M-659.2,455l-1.5,6.5c-6.4,4.4-14.7,6.6-24.8,6.6c-5.8,0-11.1-0.9-15.9-2.7c-4.8-1.8-8.8-4.4-12.2-7.7
	s-5.9-7.3-7.8-12.1c-1.8-4.7-2.7-10-2.7-15.7c0-6,1-11.5,2.9-16.3s4.7-9,8.4-12.4c3.6-3.4,8-6.1,13.1-7.9s10.9-2.8,17.2-2.8
	c9.2,0,16.9,1.5,23.4,4.5c-1,2.4-1.8,5.2-2.2,8.4l-0.8,0.3c-5.8-6.1-12.9-9.2-21.4-9.2c-4.4,0-8.6,0.9-12.4,2.7s-7.1,4.4-9.8,7.8
	c-4.9,6-7.4,14.2-7.4,24.5s2.6,18.9,7.9,24.9c5.5,6.3,12.7,9.5,21.6,9.5c4.4,0,8.6-0.8,12.5-2.3s7.7-3.9,11.5-7.1L-659.2,455
	L-659.2,455z"/>
<path class="st3" d="M-647.3,385.2c1,0.2,1.9,0.2,2.6,0.3c0.7,0,1.4,0.1,2.3,0.1s1.6,0,2.3-0.1s1.4-0.1,2.3-0.3
	c-0.1,1.4-0.2,3.7-0.2,6.8s-0.2,6.6-0.2,10.5c-0.1,3.8-0.1,7.8-0.2,11.8s-0.1,7.7-0.1,10.8c0,4.4,0,8.8,0.1,13.2
	c0,4.4,0.1,8.4,0.2,12.1c0.1,3.7,0.2,7,0.2,9.8c0.1,2.8,0.2,5,0.2,6.4c-1.3-0.2-2.2-0.3-2.8-0.3c-0.6-0.1-1.2-0.1-1.8-0.1
	s-1.2,0-1.8,0.1s-1.6,0.2-2.9,0.3c0.1-2.2,0.2-4.2,0.3-6s0.2-3.5,0.2-5.3s0.1-3.6,0.1-5.6s0.1-4.2,0.1-6.8c0-2.5,0.1-5.5,0.1-8.8
	v-11.7c0-4.9,0-9.2-0.1-13s-0.1-7.1-0.1-10.1s-0.1-5.6-0.2-7.9S-647.2,387.2-647.3,385.2L-647.3,385.2z"/>
<path class="st3" d="M-598.2,414.2c8.1,0,14.4,2.4,18.9,7.3s6.8,11.6,6.8,20.3c0,3.9-0.6,7.5-1.9,10.7c-1.3,3.3-3.1,6-5.4,8.4
	c-2.3,2.3-5.1,4.1-8.4,5.4c-3.3,1.3-6.9,1.9-10.8,1.9s-7.6-0.7-10.9-1.9c-3.3-1.3-6.1-3.1-8.4-5.4s-4.1-5.2-5.3-8.5
	c-1.3-3.3-1.9-7-1.9-11.1s0.6-8,1.9-11.3s3.1-6.1,5.4-8.5c2.4-2.3,5.2-4.1,8.6-5.4C-606.2,414.8-602.4,414.2-598.2,414.2
	L-598.2,414.2z M-599,417.6c-5.3,0-9.5,2.1-12.5,6.2s-4.5,9.9-4.5,17.3s1.5,13.2,4.5,17.3c3,4.2,7.1,6.3,12.3,6.3s9.4-2.1,12.4-6.2
	s4.5-9.8,4.5-16.9c0-7.8-1.4-13.8-4.3-17.8S-593.4,417.7-599,417.6L-599,417.6z"/>
<path class="st3" d="M-539.5,456.2c0.7-1.8,1.6-3.9,2.7-6.3c1-2.4,2.1-5,3.2-7.7c1.1-2.7,2.1-5.4,3.2-8.3c1.1-2.8,2.1-5.4,3-7.9
	s1.7-4.6,2.4-6.6s1.2-3.5,1.5-4.5c1.1,0.2,1.9,0.3,2.3,0.3s0.8,0.1,1.2,0.1c0.7,0,1.8-0.2,3.3-0.4c-2,4.1-4.1,8.8-6.4,13.8
	s-4.5,10.1-6.6,15.1s-4,9.5-5.6,13.6s-2.7,7.2-3.3,9.2c-0.9-0.2-1.5-0.3-1.9-0.3s-0.7-0.1-1.1-0.1c-0.5,0-1.5,0.2-2.9,0.4
	c-0.4-1.3-0.9-2.6-1.5-4.1s-1.2-3.2-2-5.2s-1.7-4.3-2.8-7s-2.3-5.8-3.8-9.3c-2.1-5-3.8-9-5-12s-2.2-5.4-3-7.1
	c-0.8-1.8-1.4-3.1-1.9-4.1s-1-1.9-1.5-2.9c1.1,0.2,2,0.3,2.7,0.3c0.7,0.1,1.4,0.1,2.2,0.1c0.7,0,1.5,0,2.3-0.1s1.8-0.2,3-0.3
	c1.2,3.5,2.3,6.7,3.4,9.7c1.1,3,2.3,6.1,3.5,9.2s2.6,6.5,4.1,10.1C-543.3,447.6-541.5,451.7-539.5,456.2L-539.5,456.2z"/>
<path class="st3" d="M-465,456.2l-0.2,1c-0.3,1-0.5,1.7-0.6,2.2s-0.1,1.3-0.1,2.4c-1.7,1.3-3.3,2.3-4.8,3.1s-2.9,1.5-4.4,1.9
	c-1.5,0.5-3,0.8-4.5,1s-3.3,0.3-5.1,0.3c-4,0-7.6-0.6-10.8-1.9c-3.2-1.3-5.9-3-8.2-5.3c-2.3-2.3-4-5.1-5.2-8.4s-1.8-7-1.8-11
	c0-8.5,2.3-15.2,7-20.3c2.2-2.4,4.8-4.2,7.9-5.4c3-1.1,6.6-1.7,10.6-1.7c7.1,0,12.6,2,16.4,6s5.8,9.7,5.8,17v1.5
	c0,0.6,0,1.3-0.1,1.9c-1.8-0.2-4.1-0.2-6.9-0.3c-2.8,0-6.5-0.1-11.2-0.1c-3.5,0-6.7,0-9.7,0.1s-6.4,0.1-10.1,0.3v2.4
	c0,3.1,0.4,5.9,1.3,8.5s2.1,4.7,3.7,6.5s3.5,3.2,5.8,4.2s4.8,1.5,7.6,1.5c6.8,0,12.5-2.6,17.1-7.8L-465,456.2L-465,456.2z
	 M-471.9,436.1c-0.2-2.5-0.3-4.5-0.6-6s-0.7-2.9-1.2-4.2c-2.1-5.5-6.1-8.3-11.8-8.3c-4.4,0-7.9,1.7-10.7,5
	c-2.8,3.4-4.4,7.9-4.8,13.7c1.7,0.1,3.9,0.1,6.5,0.2s6.1,0.1,10.4,0.1h4.5c1.1,0,2.1,0,2.9-0.1s1.6-0.1,2.3-0.1
	C-473.7,436.4-472.8,436.3-471.9,436.1L-471.9,436.1z"/>
<path class="st3" d="M-425.8,424c-1.7-1.2-3.5-1.8-5.3-1.8c-2.4,0-4.5,0.8-6.4,2.3s-3.2,3.5-4,5.9c-0.2,0.6-0.4,1.3-0.5,2.2
	s-0.2,2-0.3,3.4c-0.1,1.4-0.1,3.1-0.2,5.2s-0.1,4.5-0.1,7.4c0,1.5,0,3.1,0.1,4.8c0,1.7,0.1,3.4,0.2,5c0.1,1.7,0.2,3.2,0.2,4.7
	c0.1,1.5,0.2,2.7,0.3,3.7c-1.2-0.2-2.1-0.3-2.7-0.3c-0.6-0.1-1.3-0.1-1.9-0.1s-1.2,0-1.9,0.1s-1.6,0.2-2.9,0.3
	c0.2-2.1,0.4-5.6,0.6-10.3s0.2-10.3,0.2-16.7c0-2,0-3.8-0.1-5.3s-0.1-3.1-0.1-4.8s-0.1-3.7-0.2-5.9s-0.2-5.2-0.4-8.7
	c1.3,0.2,2.3,0.3,2.9,0.3s1.2,0.1,1.8,0.1s1.2,0,1.7-0.1c0.6-0.1,1.4-0.2,2.5-0.3c-0.1,1.9-0.1,3.4-0.2,4.5s-0.1,2-0.1,2.7v4.3
	c1.8-3.8,4.1-6.8,6.7-9c2.6-2.1,5.3-3.2,8.1-3.2c0.7,0,1.2,0.1,1.7,0.2s1,0.3,1.6,0.6c-0.6,2.4-0.9,4.5-0.9,6.3c0,0.2,0,0.5,0.1,0.9
	s0.1,0.8,0.2,1.3L-425.8,424L-425.8,424z"/>
</svg>
