<?xml version="1.0" encoding="utf-8"?>
<!-- Generator: Adobe Illustrator 24.0.1, SVG Export Plug-In . SVG Version: 6.00 Build 0)  -->
<svg version="1.1" id="Capa_1" xmlns="http://www.w3.org/2000/svg" xmlns:xlink="http://www.w3.org/1999/xlink" x="0px" y="0px"
	 viewBox="0 0 841.9 595.3" style="enable-background:new 0 0 841.9 595.3;" xml:space="preserve">
<style type="text/css">
	.st0{fill:#C4C6B0;}
</style>
<path class="st0" d="M447.1,314.5c9,4,21.5,6.5,27,6.8c17.6,1,51.3,1,52.7-20.8c0.1-0.9,0.2-2.9,0.2-2.9s-0.1-2-0.2-2.9
	c-1.2-9.3-7.4-14.1-17.2-17.2c-6.7-2.1-15.2-3.1-22.2-3.3c-8.8-0.2-28.8,2-39.4,6c-3.4,1.3-9.4,5.5-10.7,7c-4.4-9-7.1-20-7.1-33.5
	c0-27.2,12.1-54.2,44.3-54.2h22.9c0,0,23.5-0.9,28-0.9v-1.5h-52.8c-27.4,0-43.4,10.6-51.7,25.4c-8.3-14.8-24.2-25.4-51.7-25.4h-52.8
	v1.5c4.4,0,11.6,0.8,11.6,10.6v54.6c5.3,0,11,0.5,16.3-0.1c0.9-2.2-2.1-5.5-3.2-7.3c-6.3-9.9-11.5-24-0.9-33.2
	c3.6-3.1,8.4-4.9,13.2-5.2c5-0.3,8.8,1.6,12.8,4.3c0,0-0.1-3.6,0.1-5.2c1-7.3,7.9-11.9,14.6-13.3c7.6-1.6,16,0.8,20.9,7.1
	c1.8,2.3,3.2,5,4.6,7.7c1.6,3.1,2.6,6.7,3.5,10.1c2,7.3,2.8,15,2.6,22.7c-0.2,6.5-1.1,12.9-2.5,19.2c-0.3,1.3-5.3,16.7-5.4,16.6
	c-2.5-2-7.3-5.3-11.1-6.8c-10.4-4.3-30.2-6.4-39-6.2c-7,0.2-15.5,1.2-22.2,3.3c-9.8,3.1-16,7.9-17.2,17.2c-0.1,0.9-0.2,2.9-0.2,2.9
	s0.1,2,0.1,2.9c1.4,21.9,35.1,21.8,52.7,20.8c5.6-0.3,18-2.9,27-6.8c1-0.5,10.2-5.8,9.8-6.5c3.4,6.8,5.6,14.6,6.8,22.6l-1.4-6
	c1.2,5.4,2.1,10.9,2.4,16.4c0.1,2,0.2,4,0.1,6c-0.1,6.6-0.9,13.2-2.6,19.6c-0.9,3.4-1.9,7-3.5,10.1c-1.4,2.6-2.7,5.3-4.6,7.7
	c-4.9,6.3-13.2,8.7-20.9,7.1c-6.7-1.4-13.6-6-14.6-13.3c-0.2-1.6-0.1-5.2-0.1-5.2c-4,2.7-7.8,4.6-12.8,4.3c-4.7-0.3-9.5-2-13.2-5.2
	c-10.6-9.2-5.4-23.3,0.9-33.2c1.1-1.7,4.2-5.1,3.2-7.3c-5.3-0.5-11-0.1-16.3-0.1v54.6c0,9.9-7.2,10.6-11.6,10.6v1.5l0,0h52.8l0,0
	c27.4,0,43.4-10.6,51.7-25.4c8.3,14.7,24.2,25.4,51.7,25.4h52.8v-1.5c-4.4,0-28-0.9-28-0.9h-22.9c-32.2,0-44.3-27-44.3-54.2
	c0-13.5,2.7-24.5,7.1-33.5C437.2,309,446.1,314.1,447.1,314.5z M445.2,296.1c0.4-0.9,1.1-2.2,1.8-3c2.3-2.8,6.6-4,10-5.1
	c13.3-4.2,27.8-5.5,41.7-3.6c8.6,1.2,23.2,2.5,23.5,13.3c0.2,4.8-5.9,8.5-9.8,10c-6.2,2.4-13.3,3.5-20.1,3.7
	c-6.5,0.2-13.1-0.2-19.5-1.3c-2.2-0.4-4.5-0.9-6.6-1.4c-7-1.7-14.4-3.7-19.8-8.4C444.3,298.4,444.1,298.3,445.2,296.1z M395.3,300.3
	c-5.4,4.7-12.8,6.6-19.8,8.4c-2.2,0.5-4.4,1-6.6,1.4c-6.4,1.1-13,1.5-19.5,1.3c-6.7-0.3-13.8-1.3-20.1-3.7c-3.9-1.5-9.9-5.3-9.8-10
	c0.4-10.8,14.9-12.1,23.5-13.3c13.9-1.9,28.4-0.6,41.7,3.6c3.4,1.1,7.8,2.3,10,5.1c0.7,0.8,1.4,2.1,1.8,3
	C397.7,298.3,397.4,298.4,395.3,300.3z M420.9,307.6c-1.8-3.6-3.9-7-6.3-10c2.3-3,4.4-6.4,6.3-10c1.8,3.6,3.9,7,6.3,10
	C424.8,300.7,422.7,304,420.9,307.6z"/>
</svg>
