<?xml version="1.0" encoding="utf-8"?>
<!-- Generator: Adobe Illustrator 24.0.1, SVG Export Plug-In . SVG Version: 6.00 Build 0)  -->
<svg version="1.1" id="Layer_1" xmlns="http://www.w3.org/2000/svg" xmlns:xlink="http://www.w3.org/1999/xlink" x="0px" y="0px"
	 viewBox="0 0 1920 1080" style="enable-background:new 0 0 1920 1080;" xml:space="preserve">
<style type="text/css">
	.st0{fill:#C4C6B0;stroke:#C4C6B0;stroke-miterlimit:10;}
	.st1{fill:#C4C6B0;}
</style>
<path class="st0" d="M403.5,598.8c3,0.4,5.7,0.6,8,0.6c2.3,0,4.9,0.2,8.2,0.2c1.9,0,4.7,0,8.3-0.2s8-0.2,13.1-0.4
	c4-0.2,8.2-0.2,12.1-0.4c4,0,7.6-0.2,10.8-0.2c6.3,0,11.8,0.4,16.7,0.8c4.9,0.6,9.3,1.5,13.5,2.7c4.2,1.1,7.8,2.8,11.2,4.9
	c3.4,2.1,6.6,4.6,9.7,7.4c13.1,12.1,19.5,28.6,19.5,49.5c0,12.7-2.3,24.3-7,34.9c-4.7,10.6-11.4,19.2-20.1,25.8
	c-3.6,2.8-7.4,5.1-11.2,7.2c-3.8,2.1-8,3.6-12.5,4.7c-4.6,1.3-9.5,2.1-14.8,2.7c-5.3,0.6-11.2,0.8-17.8,0.8c-1.9,0-4.4,0-8-0.2
	c-3.6-0.2-6.8,0.6-10.6,0.6c-3.2-0.2-6.1-0.2-8.3-0.4c-2.3,0-4.2-0.2-5.7-0.2c-2.7,0-5.1,0-7.2,0.2c-2.1,0.2-4.7,0.4-7.8,0.6
	c0.4-2.3,0.6-6.1,0.8-11.4c0.2-5.3,0.4-11.4,0.6-18c0.2-6.6,0.4-13.8,0.6-21.2c0.2-7.6,0.2-14.6,0.2-21.2c0-14.8-0.2-28.1-0.6-40
	C404.6,616.4,404.2,606.6,403.5,598.8L403.5,598.8z M423.6,731c3.6,0.8,6.8,1.1,9.9,1.3c2.8,0.2,6.3,0.4,10.2,0.4
	c6.8,0,12.9-0.4,18.2-0.8c5.3-0.4,10.1-1.5,14.2-2.7c4.2-1.3,8-2.8,11.4-4.9c3.4-2.1,6.4-4.6,9.3-7.4c11.4-11.8,17.1-28.5,17.1-50.3
	c0-20.5-5.3-36-15.7-46.7c-2.5-2.5-5.3-4.6-8.2-6.3c-2.8-1.7-6.3-3-10.1-4.2c-3.8-1.1-8.2-1.7-13.1-2.3s-10.8-0.6-17.3-0.6
	c-5.3,0-9.9,0.2-13.5,0.4c-3.8,0.2-8,0.6-12.5,1.1c-0.2,1.9-0.4,5.3-0.4,10.1c-0.2,4.7-0.2,9.9-0.4,15.7s-0.2,11.6-0.2,17.3
	s-0.2,10.8-0.2,15c0,6.4,0,12.9,0.2,19.5c0,6.6,0.2,12.9,0.4,18.8c0.2,5.9,0.4,11.2,0.4,15.9C423.2,725.1,423.4,728.7,423.6,731
	L423.6,731z"/>
<path class="st0" d="M607.4,640.9c15.4,0,27.3,4.6,35.9,13.8c8.5,9.3,12.9,22,12.9,38.5c0,7.4-1.3,14.2-3.6,20.3
	c-2.3,6.1-5.9,11.4-10.2,15.9c-4.4,4.4-9.7,7.8-15.9,10.2c-6.3,2.5-13.1,3.6-20.5,3.6s-14.4-1.3-20.7-3.6
	c-6.3-2.5-11.6-5.9-15.9-10.2c-4.4-4.4-7.8-9.9-10.1-16.1c-2.5-6.3-3.6-13.3-3.6-21.1c0-7.8,1.1-15.2,3.6-21.4
	c2.5-6.3,5.9-11.6,10.2-16.1c4.6-4.4,9.9-7.8,16.3-10.2C592.2,642.2,599.4,640.9,607.4,640.9L607.4,640.9z M606.1,647.3
	c-10.1,0-18,4-23.7,11.8c-5.7,7.8-8.5,18.8-8.5,32.8c0,14,2.8,25,8.5,32.8c5.7,8,13.5,12,23.3,12s17.8-4,23.5-11.8
	c5.7-7.8,8.5-18.6,8.5-32.1c0-14.8-2.7-26.2-8.2-33.8C624.1,651.5,616.5,647.5,606.1,647.3L606.1,647.3z"/>
<path class="st0" d="M679.5,740.9c0.4-2.3,0.6-5.7,0.8-10.2c0.2-4.6,0.4-10.1,0.6-16.3s0.2-13.5,0.4-21.2c0.2-7.8,0.2-16.3,0.2-25
	c0-10.1,0-19.5-0.2-28.5c-0.2-8.9-0.2-16.7-0.4-23.9c-0.2-7-0.4-13.1-0.6-18.2c-0.2-5.1-0.4-9.1-0.6-12c1.9,0.4,3.6,0.6,4.7,0.6
	c1.1,0.2,2.5,0.2,3.8,0.2c1.5,0,2.8,0,4.2-0.2c1.3-0.2,2.8-0.4,5.1-0.6c-0.4,3.8-0.6,8-0.6,12.5c-0.2,4.6-0.2,9.9-0.4,15.9
	s-0.2,12.9-0.2,20.9c0,7.8-0.2,16.9-0.2,27.1c7.4-14.2,19.2-21.2,35.3-21.2c6.3,0,12,1.1,17.3,3.4c5.1,2.3,9.7,5.5,13.3,9.9
	c3.8,4.2,6.6,9.3,8.5,15.2s3,12.3,3,19.5c0,7.8-1.1,15-3.6,21.6c-2.5,6.6-5.7,12.3-9.9,17.3c-4.2,4.9-9.1,8.7-14.8,11.4
	s-12,4.2-18.6,4.2c-6.3,0-11.8-1.1-16.3-3.2c-4.6-2.1-9.1-5.9-13.5-11.2c-2.1,1.3-4.6,3.4-7.4,5.7c-2.8,2.5-4.9,4.6-6.4,6.4H679.5
	L679.5,740.9z M725.9,648.7c-4.6,0-8.9,1.1-13.1,3.4c-4.2,2.3-7.6,5.5-10.1,9.5c-4.9,8.2-7.4,19.2-7.4,33c0,6.6,0.4,12,1.3,16.3
	c0.9,4.4,2.5,8.3,4.6,12c2.5,4,5.7,7.2,9.9,9.7c4.2,2.5,8.5,3.6,13.1,3.6c4.6,0,8.9-1.1,12.7-3.4c3.8-2.3,7.2-5.5,9.9-9.5
	c2.7-4.2,4.9-9.1,6.4-14.8c1.5-5.7,2.3-12,2.3-18.8c0-6.3-0.8-11.8-2.1-16.9c-1.3-5.1-3.4-9.5-6.1-13.1c-2.7-3.6-5.7-6.3-9.3-8.3
	C734.5,649.8,730.5,648.7,725.9,648.7L725.9,648.7z"/>
<path class="st0" d="M797.1,585.9c1.9,0.4,3.6,0.4,4.7,0.6c1.3,0,2.7,0.2,4.4,0.2c1.7,0,3,0,4.4-0.2s2.7-0.2,4.4-0.6
	c-0.2,2.7-0.4,7-0.4,12.9c-0.2,5.9-0.4,12.5-0.4,19.9c-0.2,7.2-0.2,14.8-0.4,22.4s-0.2,14.6-0.2,20.5c0,8.3,0,16.7,0.2,25
	c0,8.3,0.2,15.9,0.4,23c0.2,7,0.4,13.3,0.4,18.6c0.2,5.3,0.4,9.5,0.4,12.1c-2.5-0.4-4.2-0.6-5.3-0.6c-1.1-0.2-2.3-0.2-3.4-0.2
	c-1.1,0-2.3,0-3.4,0.2c-1.1,0.2-3,0.4-5.5,0.6c0.2-4.2,0.4-8,0.6-11.4s0.4-6.6,0.4-10.1s0.2-6.8,0.2-10.6s0.2-8,0.2-12.9
	c0-4.7,0.2-10.4,0.2-16.7v-22c0-9.3,0-17.5-0.2-24.7s-0.2-13.5-0.2-19.2s-0.2-10.6-0.4-15C797.8,593.5,797.4,589.7,797.1,585.9
	L797.1,585.9z"/>
<path class="st0" d="M925.1,720.6l-0.4,1.9c-0.6,1.9-0.9,3.2-0.9,4.2c-0.2,0.9-0.2,2.5-0.2,4.6c-3.2,2.5-6.3,4.4-9.1,5.9
	c-2.8,1.5-5.7,2.8-8.3,3.6c-2.7,0.8-5.7,1.5-8.5,1.9c-2.8,0.4-6.3,0.6-9.7,0.6c-7.6,0-14.4-1.1-20.5-3.6
	c-6.1-2.5-11.2-5.7-15.6-10.1s-7.6-9.7-9.9-15.9c-2.3-6.3-3.4-13.3-3.4-20.9c0-16.1,4.4-28.8,13.3-38.5c4.2-4.6,9.1-8,15-10.2
	c5.7-2.1,12.5-3.2,20.1-3.2c13.5,0,23.7,3.8,31.1,11.4c7.4,7.6,11,18.4,11,32.2v2.8c0,1.1,0,2.5-0.2,3.6c-3.4-0.4-7.8-0.4-13.1-0.6
	c-5.3,0-12.3-0.2-21.2-0.2c-6.6,0-12.7,0-18.4,0.2c-5.7,0.2-12.1,0.2-19.2,0.6v4.6c0,5.9,0.8,11.2,2.5,16.1c1.7,4.9,4,8.9,7,12.3
	c3,3.4,6.6,6.1,11,8c4.4,1.9,9.1,2.8,14.4,2.8c12.9,0,23.7-4.9,32.2-14.8L925.1,720.6L925.1,720.6z M912.2,682.4
	c-0.4-4.7-0.6-8.5-1.1-11.4c-0.6-2.8-1.3-5.5-2.3-8c-4-10.4-11.6-15.7-22.4-15.7c-8.3,0-15,3.2-20.3,9.5c-5.3,6.3-8.3,15-9.1,26
	c3.2,0.2,7.4,0.2,12.3,0.4c5.1,0,11.6,0.2,19.7,0.2h8.5c2.1,0,4,0,5.5-0.2s3-0.2,4.4-0.2C908.8,683,910.3,682.8,912.2,682.4
	L912.2,682.4z"/>
<path class="st1" d="M1071.7,718.3l-2.8,12.3c-12.1,8.3-27.9,12.5-47,12.5c-11,0-21.1-1.7-30.2-5.1c-9.1-3.4-16.7-8.3-23.1-14.6
	s-11.2-13.8-14.8-23c-3.4-8.9-5.1-19-5.1-29.8c0-11.4,1.9-21.8,5.5-30.9c3.6-9.1,8.9-17.1,15.9-23.5c6.8-6.4,15.2-11.6,24.8-15
	c9.7-3.4,20.7-5.3,32.6-5.3c17.5,0,32.1,2.8,44.4,8.5c-1.9,4.6-3.4,9.9-4.2,15.9l-1.5,0.6c-11-11.6-24.5-17.5-40.6-17.5
	c-8.3,0-16.3,1.7-23.5,5.1c-7.2,3.4-13.5,8.3-18.6,14.8c-9.3,11.4-14,26.9-14,46.5s4.9,35.9,15,47.2c10.4,12,24.1,18,41,18
	c8.3,0,16.3-1.5,23.7-4.4c7.4-2.8,14.6-7.4,21.8-13.5L1071.7,718.3L1071.7,718.3z"/>
<path class="st1" d="M1094.3,585.9c1.9,0.4,3.6,0.4,4.9,0.6c1.3,0,2.7,0.2,4.4,0.2s3,0,4.4-0.2s2.7-0.2,4.4-0.6
	c-0.2,2.7-0.4,7-0.4,12.9c0,5.9-0.4,12.5-0.4,19.9c-0.2,7.2-0.2,14.8-0.4,22.4c-0.2,7.6-0.2,14.6-0.2,20.5c0,8.3,0,16.7,0.2,25
	c0,8.3,0.2,15.9,0.4,23c0.2,7,0.4,13.3,0.4,18.6c0.2,5.3,0.4,9.5,0.4,12.1c-2.5-0.4-4.2-0.6-5.3-0.6c-1.1-0.2-2.3-0.2-3.4-0.2
	s-2.3,0-3.4,0.2s-3,0.4-5.5,0.6c0.2-4.2,0.4-8,0.6-11.4c0.2-3.4,0.4-6.6,0.4-10.1s0.2-6.8,0.2-10.6s0.2-8,0.2-12.9
	c0-4.7,0.2-10.4,0.2-16.7v-22c0-9.3,0-17.5-0.2-24.7c-0.2-7.2-0.2-13.5-0.2-19.2s-0.2-10.6-0.4-15
	C1095.3,593.5,1094.5,589.7,1094.3,585.9L1094.3,585.9z"/>
<path class="st1" d="M1187.4,640.9c15.4,0,27.3,4.6,35.9,13.8c8.5,9.3,12.9,22,12.9,38.5c0,7.4-1.1,14.2-3.6,20.3
	c-2.5,6.3-5.9,11.4-10.2,15.9c-4.4,4.4-9.7,7.8-15.9,10.2c-6.3,2.5-13.1,3.6-20.5,3.6s-14.4-1.3-20.7-3.6
	c-6.3-2.5-11.6-5.9-15.9-10.2s-7.8-9.9-10.1-16.1c-2.5-6.3-3.6-13.3-3.6-21.1c0-7.8,1.1-15.2,3.6-21.4s5.9-11.6,10.2-16.1
	c4.6-4.4,9.9-7.8,16.3-10.2C1172.3,642.2,1179.5,640.9,1187.4,640.9L1187.4,640.9z M1185.9,647.3c-10.1,0-18,4-23.7,11.8
	c-5.7,7.8-8.5,18.8-8.5,32.8c0,14,2.8,25,8.5,32.8c5.7,8,13.5,12,23.3,12c9.9,0,17.8-4,23.5-11.8c5.7-7.8,8.5-18.6,8.5-32.1
	c0-14.8-2.7-26.2-8.2-33.8C1203.9,651.5,1196.6,647.5,1185.9,647.3L1185.9,647.3z"/>
<path class="st1" d="M1298.8,720.6c1.3-3.4,3-7.4,5.1-12c1.9-4.6,4-9.5,6.1-14.6c2.1-5.1,4-10.2,6.1-15.7c2.1-5.3,4-10.2,5.7-15
	c1.7-4.7,3.2-8.7,4.6-12.5c1.3-3.8,2.3-6.6,2.8-8.5c2.1,0.4,3.6,0.6,4.4,0.6c0.8,0,1.5,0.2,2.3,0.2c1.3,0,3.4-0.4,6.3-0.8
	c-3.8,7.8-7.8,16.7-12.1,26.2c-4.4,9.5-8.5,19.2-12.5,28.6c-4,9.5-7.6,18-10.6,25.8c-3,7.8-5.1,13.7-6.3,17.5
	c-1.7-0.4-2.8-0.6-3.6-0.6s-1.3-0.2-2.1-0.2c-0.9,0-2.8,0.4-5.5,0.8c-0.8-2.5-1.7-4.9-2.8-7.8s-2.3-6.1-3.8-9.9
	c-1.5-3.8-3.2-8.2-5.3-13.3c-2.1-5.1-4.4-11-7.2-17.6c-4-9.5-7.2-17.1-9.5-22.8s-4.2-10.2-5.7-13.5c-1.5-3.4-2.7-5.9-3.6-7.8
	s-1.9-3.6-2.8-5.5c2.1,0.4,3.8,0.6,5.1,0.6c1.3,0.2,2.7,0.2,4.2,0.2c1.3,0,2.8,0,4.4-0.2c1.5-0.2,3.4-0.4,5.7-0.6
	c2.3,6.6,4.4,12.7,6.4,18.4s4.4,11.6,6.6,17.5c2.3,5.9,4.9,12.3,7.8,19.2C1291.6,704.3,1295,712,1298.8,720.6L1298.8,720.6z"/>
<path class="st1" d="M1440.1,720.6l-0.4,1.9c-0.6,1.9-0.9,3.2-1.1,4.2s-0.2,2.5-0.2,4.6c-3.2,2.5-6.3,4.4-9.1,5.9
	c-2.8,1.5-5.5,2.8-8.3,3.6c-2.8,0.9-5.7,1.5-8.5,1.9s-6.3,0.6-9.7,0.6c-7.6,0-14.4-1.1-20.5-3.6c-6.1-2.5-11.2-5.7-15.6-10.1
	c-4.4-4.4-7.6-9.7-9.9-15.9c-2.3-6.3-3.4-13.3-3.4-20.9c0-16.1,4.4-28.8,13.3-38.5c4.2-4.6,9.1-8,15-10.2c5.7-2.1,12.5-3.2,20.1-3.2
	c13.5,0,23.9,3.8,31.1,11.4c7.2,7.6,11,18.4,11,32.2v2.8c0,1.1,0,2.5-0.2,3.6c-3.4-0.4-7.8-0.4-13.1-0.6c-5.3,0-12.3-0.2-21.2-0.2
	c-6.6,0-12.7,0-18.4,0.2c-5.7,0.2-12.1,0.2-19.2,0.6v4.6c0,5.9,0.8,11.2,2.5,16.1c1.7,4.9,4,8.9,7,12.3c3,3.4,6.6,6.1,11,8
	c4.4,1.9,9.1,2.8,14.4,2.8c12.9,0,23.7-4.9,32.4-14.8L1440.1,720.6L1440.1,720.6z M1427,682.4c-0.4-4.7-0.6-8.5-1.1-11.4
	c-0.6-2.8-1.3-5.5-2.3-8c-4-10.4-11.6-15.7-22.4-15.7c-8.3,0-15,3.2-20.3,9.5c-5.3,6.4-8.3,15-9.1,26c3.2,0.2,7.4,0.2,12.3,0.4
	s11.6,0.2,19.7,0.2h8.5c2.1,0,4,0,5.5-0.2s3-0.2,4.4-0.2C1423.6,683,1425.3,682.8,1427,682.4L1427,682.4z"/>
<path class="st1" d="M1514.5,659.5c-3.2-2.3-6.6-3.4-10.1-3.4c-4.6,0-8.5,1.5-12.1,4.4s-6.1,6.6-7.6,11.2c-0.4,1.1-0.8,2.5-0.9,4.2
	c-0.2,1.7-0.4,3.8-0.6,6.4c-0.2,2.7-0.2,5.9-0.4,9.9c-0.2,4-0.2,8.5-0.2,14c0,2.8,0,5.9,0.2,9.1c0,3.2,0.2,6.4,0.4,9.5
	c0.2,3.2,0.4,6.1,0.4,8.9c0.2,2.8,0.4,5.1,0.6,7c-2.3-0.4-4-0.6-5.1-0.6c-1.1-0.2-2.5-0.2-3.6-0.2s-2.3,0-3.6,0.2s-3,0.4-5.5,0.6
	c0.4-4,0.8-10.6,1.1-19.5s0.4-19.5,0.4-31.7c0-3.8,0-7.2-0.2-10.1c-0.2-2.8-0.2-5.9-0.2-9.1s-0.2-7-0.4-11.2
	c-0.2-4.2-0.4-9.9-0.8-16.5c2.5,0.4,4.4,0.6,5.5,0.6s2.3,0.2,3.4,0.2s2.3,0,3.2-0.2c1.1-0.2,2.7-0.4,4.7-0.6
	c-0.2,3.6-0.2,6.4-0.4,8.5c-0.2,2.1-0.2,3.8-0.2,5.1v8.2c3.4-7.2,7.8-12.9,12.7-17.1c4.9-4,10.1-6.1,15.4-6.1c1.3,0,2.3,0.2,3.2,0.4
	c0.9,0.2,1.9,0.6,3,1.1c-1.1,4.6-1.7,8.5-1.7,12c0,0.4,0,0.9,0.2,1.7c0.2,0.8,0.2,1.5,0.4,2.5L1514.5,659.5L1514.5,659.5z"/>
<path class="st1" d="M985.8,341.6c17.1,7.6,40.8,12.3,51.2,12.9c33.6,1.9,97.3,1.9,100-39.5c0.2-1.7,0.4-5.5,0.4-5.5
	s-0.2-3.8-0.4-5.5c-2.3-17.6-14-26.7-32.6-32.6c-12.7-4-28.8-5.9-42.1-6.3c-16.7-0.4-54.6,3.8-74.7,11.4
	c-6.4,2.5-17.8,10.4-20.3,13.3c-8.3-17.1-13.5-37.9-13.5-63.5c0-51.6,23-102.8,84-102.8h43.4c0,0,44.6-1.7,53.1-1.7v-2.8h-100.2
	c-52,0-82.3,20.1-98.1,48.2c-15.7-28.1-45.9-48.2-98.1-48.2H737.9v2.8c8.3,0,22,1.5,22,20.1v103.6c10.1,0,20.9,0.9,30.9-0.2
	c1.7-4.2-4-10.4-6.1-13.8c-12-18.8-21.8-45.5-1.7-63c6.8-5.9,15.9-9.3,25-9.9c9.5-0.6,16.7,3,24.3,8.2c0,0-0.2-6.8,0.2-9.9
	c1.9-13.8,15-22.6,27.7-25.2c14.6-3,30.4,1.7,39.6,13.5c3.4,4.6,6.1,9.5,8.7,14.6c3,5.9,4.9,12.7,6.6,19.2c3.8,14,5.3,28.5,4.9,43.1
	c-0.4,12.3-2.1,24.5-4.7,36.4c-0.6,2.5-10.1,31.5-10.2,31.5c-4.7-3.8-13.8-10.1-21.1-12.9c-19.7-8.2-57.3-12.1-74-11.8
	c-13.3,0.2-29.4,2.3-42.1,6.3c-18.6,5.9-30.4,15-32.6,32.6c-0.2,1.7-0.4,5.5-0.4,5.5s0.2,3.8,0.4,5.5c2.7,41.5,66.6,41.4,100,39.5
	c10.6-0.6,34.1-5.5,51.2-12.9c1.9-0.9,19.3-11,18.6-12.3c6.4,12.9,10.6,27.7,12.9,42.9l-2.7-11.4c2.3,10.2,4,20.7,4.6,31.1
	c0.2,3.8,0.2,7.6,0.2,11.4c-0.2,12.5-1.7,25-4.9,37.2c-1.7,6.4-3.6,13.3-6.6,19.2c-2.7,4.9-5.1,10.1-8.7,14.6
	c-9.3,12-25,16.5-39.6,13.5c-12.7-2.7-25.8-11.4-27.7-25.2c-0.4-3-0.2-9.9-0.2-9.9c-7.6,5.1-14.8,8.7-24.3,8.2
	c-8.9-0.6-18-3.8-25-9.9c-20.1-17.3-10.2-44.2,1.7-63c2.1-3.2,7.8-9.7,6.1-13.8c-10.1-0.9-20.9-0.2-30.9-0.2v103.6
	c0,18.8-13.7,20.1-22,20.1v2.8l0,0H838l0,0c52,0,82.3-20.1,98.1-48.2c15.7,27.9,45.9,48.2,98.1,48.2h100.2v-2.8
	c-8.3,0-53.1-1.7-53.1-1.7h-43.4c-61.1,0-84-51.2-84-102.8c0-25.6,5.1-46.5,13.5-63.5C967,330.9,983.9,340.6,985.8,341.6z
	 M982.2,306.5c0.8-1.7,2.1-4.2,3.4-5.7c4.4-5.3,12.5-7.6,19-9.7c25.2-8,52.7-10.4,79.1-6.8c16.3,2.3,44,4.7,44.6,25.2
	c0.4,9.1-11,16.1-18.6,19c-11.8,4.6-25.2,6.6-38.1,7c-12.3,0.4-24.8-0.4-37-2.5c-4.2-0.8-8.5-1.7-12.5-2.7
	c-13.3-3.2-27.3-7-37.6-15.9C980.5,311,980.1,310.6,982.2,306.5z M887.5,314.4c-10.2,8.9-24.3,12.5-37.6,15.9
	c-4.2,0.9-8.3,1.9-12.5,2.7c-12.1,2.1-24.7,2.8-37,2.5c-12.7-0.6-26.2-2.5-38.1-7c-7.4-2.8-18.8-10.1-18.6-19
	c0.8-20.5,28.3-23,44.6-25.2c26.4-3.6,53.9-1.1,79.1,6.8c6.4,2.1,14.8,4.4,19,9.7c1.3,1.5,2.7,4,3.4,5.7
	C892.1,310.6,891.7,311,887.5,314.4z M936.1,328.5c-3.4-6.8-7.4-13.3-12-19c4.4-5.7,8.3-12.1,12-19c3.4,6.8,7.4,13.3,12,19
	C943.5,315.2,939.5,321.5,936.1,328.5z"/>
</svg>
